<?xml version="1.0" standalone="no"?><!DOCTYPE svg PUBLIC "-//W3C//DTD SVG 1.1//EN" "http://www.w3.org/Graphics/SVG/1.1/DTD/svg11.dtd"><svg t="1493257893123" class="icon" style="" viewBox="0 0 1024 1024" version="1.1" xmlns="http://www.w3.org/2000/svg" p-id="3626" xmlns:xlink="http://www.w3.org/1999/xlink" width="200" height="200"><defs><style type="text/css"></style></defs><path d="M512.717999 1.548626C230.37665 1.548626 1.493605 230.43167 1.493605 512.7743s228.883045 511.225674 511.224394 511.225674S1023.942393 795.115649 1023.942393 512.7743 795.059349 1.548626 512.717999 1.548626zM512.717999 972.873567c-254.107727 0-460.101827-205.995381-460.101827-460.101827S258.610272 52.669914 512.717999 52.669914s460.101827 205.995381 460.101827 460.101827S766.825726 972.873567 512.717999 972.873567zM744.777647 476.541577c-79.555848-54.132789-223.814815-135.156632-305.958532-185.360262-33.67813-21.23793-61.996223-12.70897-64.717197 24.801049-1.970978 100.467414 0 294.316962 0 396.522421 1.711167 38.079555 35.28179 43.10171 64.418991 27.81255 82.050287-49.710887 223.071218-135.147673 305.536179-185.10941C743.516988 554.880282 806.671482 520.146271 744.777647 476.541577z" p-id="3627" fill="#ffffff"></path></svg>