<?xml version="1.0" standalone="no"?><!DOCTYPE svg PUBLIC "-//W3C//DTD SVG 1.1//EN" "http://www.w3.org/Graphics/SVG/1.1/DTD/svg11.dtd"><svg t="1493275177979" class="icon" style="" viewBox="0 0 1024 1024" version="1.1" xmlns="http://www.w3.org/2000/svg" p-id="38194" xmlns:xlink="http://www.w3.org/1999/xlink" width="22" height="22"><defs><style type="text/css"></style></defs><path d="M519.872 64.384c-247.424 0-448 200.576-448 448 0 247.424 200.576 448 448 448 247.36 0 448-200.512 448-448C967.872 264.96 767.232 64.384 519.872 64.384zM636.032 513.408 561.344 513.408l0 270.4L449.472 783.808 449.472 513.408 393.664 513.408 393.664 420.224l55.808 0L449.472 364.288c0-76.032 31.616-121.28 121.344-121.28l74.56 0 0 93.184L598.72 336.192c-34.88 0-37.248 13.056-37.248 37.312l-0.128 46.72 84.416 0L636.032 513.408z" p-id="38195" fill="#cfcece"></path></svg>