<?xml version="1.0" standalone="no"?><!DOCTYPE svg PUBLIC "-//W3C//DTD SVG 1.1//EN" "http://www.w3.org/Graphics/SVG/1.1/DTD/svg11.dtd"><svg t="1493260624622" class="icon" style="" viewBox="0 0 1024 1024" version="1.1" xmlns="http://www.w3.org/2000/svg" p-id="12923" xmlns:xlink="http://www.w3.org/1999/xlink" width="120" height="120"><defs><style type="text/css"></style></defs><path d="M510.492158 66.73696c-245.99053 0-445.396069 199.401446-445.396069 445.381743 0 245.981321 199.405539 445.387883 445.396069 445.387883 245.972111 0 445.378673-199.406562 445.378673-445.387883C955.871855 266.138406 756.464269 66.73696 510.492158 66.73696zM510.492158 928.45697c-229.938949 0-416.33622-186.397271-416.33622-416.337243 0-229.938949 186.397271-416.337243 416.33622-416.337243 229.930763 0 416.33008 186.398294 416.33008 416.337243C926.822239 742.058676 740.423945 928.45697 510.492158 928.45697zM404.012032 725.081003l300.091706-208.121038L404.012032 308.837904 404.012032 725.081003z" p-id="12924" fill="#ffffff"></path></svg>