<?xml version="1.0" standalone="no"?><!DOCTYPE svg PUBLIC "-//W3C//DTD SVG 1.1//EN" "http://www.w3.org/Graphics/SVG/1.1/DTD/svg11.dtd"><svg t="1495532796558" class="icon" style="" viewBox="0 0 1024 1024" version="1.1" xmlns="http://www.w3.org/2000/svg" p-id="1779" xmlns:xlink="http://www.w3.org/1999/xlink" width="21" height="21"><defs><style type="text/css"></style></defs><path d="M512.002023 0c-282.776342 0-512 229.237985-512 512.001023 0 282.773272 229.222635 511.994883 512 511.994883 282.757922 0 511.995907-229.222635 511.995907-511.994883C1023.99793 229.237985 794.760969 0 512.002023 0L512.002023 0 512.002023 0zM774.878129 686.472684c-12.133342 2.642177-35.380812-16.96744-58.096163-47.670719-4.998851 33.828456-21.586644 64.716954-46.400796 89.892333 42.255383 13.500479 70.463842 39.08211 67.172889 64.546062-4.145413 32.30373-57.513902 52.221362-119.17424 44.49233-43.144636-5.459339-78.93477-23.008017-95.082542-44.150546-6.635117 0.511653-13.359262 0.766456-20.171412 0.766456-3.959172 0-7.886621-0.083911-11.792581-0.254803-15.120372 22.184255-53.094242 40.547485-99.633185 45.532009-63.593364 6.792707-119.042233-13.978363-123.884518-46.385447-3.879354-25.634844 25.12319-50.90846 68.910463-63.691601-26.415626-26.508747-43.705408-59.409065-47.849798-95.473445-25.587771 30.635741-51.626821 47.1386-61.632709 41.899272-19.48682-10.258645-24.198122-73.231885 7.441483-135.561465 11.42112-22.474874 25.361621-42.050722 39.649022-57.30924-4.304026-8.207939-6.895037-18.739806-6.895037-30.204929 0-19.780509 7.67582-36.748972 18.618033-43.917232-1.77646-11.126408-2.693342-22.522969-2.693342-34.148751 0-120.863718 99.871615-218.808448 223.040842-218.808448 123.236765 0 223.128847 97.944729 223.128847 218.808448 0 10.360975-0.732687 20.551058-2.148943 30.517037 16.436344 0.424672 29.692253 21.552875 29.692253 47.548946 0 18.803251-6.943133 35.053354-17.011442 42.768059 12.353352 16.162098 24.00881 36.044938 33.139771 58.040904C799.521389 617.128339 789.248418 683.347506 774.878129 686.472684L774.878129 686.472684 774.878129 686.472684zM774.878129 686.472684" p-id="1780" fill="#eea807"></path></svg>