<?xml version="1.0" standalone="no"?><!DOCTYPE svg PUBLIC "-//W3C//DTD SVG 1.1//EN" "http://www.w3.org/Graphics/SVG/1.1/DTD/svg11.dtd"><svg t="1493275100054" class="icon" style="" viewBox="0 0 1024 1024" version="1.1" xmlns="http://www.w3.org/2000/svg" p-id="35571" xmlns:xlink="http://www.w3.org/1999/xlink" width="22" height="22"><defs><style type="text/css"></style></defs><path d="M455.561082 586.615395c-3.430122-0.467651-6.979972 0.675382-10.644431 3.432169l-2.065032 2.749624c-0.924045 0.452301-1.611707 1.143033-2.068102 2.068102l-1.384533 2.749624c-0.455371 0.909719-0.681522 2.053776-0.681522 3.432169l0 2.749624c0 0.909719 0.226151 1.824555 0.681522 2.750647l1.384533 2.749624c1.378393 2.75474 3.784186 4.242627 7.214309 4.461615 3.432169 0.222057 6.752798-0.812505 9.963932-3.099594l-0.00307 0.019443c1.834788-1.831718 3.322675-3.781116 4.466732-5.849218 1.14201-2.068102 1.830695-4.245697 2.065032-6.53074 0.236384-2.286066-0.335644-4.350075-1.713015-6.179746C461.39495 588.918857 458.993251 587.084069 455.561082 586.615395z" p-id="35572" fill="#cfcece"></path><path d="M426.708963 612.351546c-2.065032-2.068102-4.471848-3.89982-7.211239-5.499248-2.744507-1.599428-6.065136-2.744507-9.964956-3.432169-3.898797-0.687662-7.910157-0.805342-12.028964-0.348947-5.952572 0.452301-11.333116 2.402723-16.142655 5.849218-4.810562 3.445472-8.591679 7.572466-11.350512 12.382005-2.755764 4.808516-4.133134 9.733689-4.133134 14.779611-0.016373 2.26867 0.327458 4.446265 1.033539 6.529717 0.701988 2.083451 1.617847 3.91517 2.749624 5.499248 1.128707 1.582031 2.390443 3.187599 3.783163 4.814656 1.38965 1.62808 3.106758 2.889817 5.14416 3.783163 2.037403 0.895393 4.099365 1.694595 6.179746 2.397606 2.084475 0.703011 4.376681 1.164522 6.883781 1.38351 2.506077 0.223081 5.14109 0.104377 7.896854-0.348947l0.021489-0.042979c5.955642-0.456395 11.45182-2.286066 16.497743-5.499248 5.042853-3.209088 9.052167-7.101745 12.028964-11.676947 2.974751-4.574179 4.464685-9.382695 4.464685-14.429641-0.014326-3.208065-0.476861-6.185886-1.38658-8.927323C430.264952 616.82237 428.777065 614.416578 426.708963 612.351546z" p-id="35573" fill="#cfcece"></path><path d="M570.692239 511.667425c-34.364669-18.797112-76.517721-27.042913-126.455063-24.740474-49.939389 2.299369-92.090395 15.247262-126.45711 38.838563s-51.55212 51.653427-51.55212 84.188424c0 32.985252 17.294898 60.250222 51.880601 81.787748 34.588773 21.538549 76.623122 31.16479 126.104069 28.877701l0.024559-0.024559c48.558949-2.287089 90.366124-16.604166 125.422548-42.950208 35.0554-26.346041 52.583612-56.013735 52.583612-89.004103C622.243335 556.12087 605.058954 530.46249 570.692239 511.667425zM523.587408 623.678522c-2.054799 11.463076-6.290263 21.089317-12.71151 28.872584-16.041348 20.61655-37.117362 33.790594-63.229067 39.520085-26.111704 5.733585-54.29151 1.267876-84.540442-13.392008-5.043876-2.755764-9.398044-6.196119-13.063527-10.314926-3.665483-4.119831-6.29538-7.900947-7.892761-11.347442-1.599428-3.446495-2.862187-7.229658-3.783163-11.348466-0.925069-4.120854-1.387603-6.867408-1.387603-8.245801l0-2.750647-0.681522-5.498224c-0.01535-3.213181 0.212848-7.677866 0.681522-13.396101 0.471744-5.715165 1.506307-12.013615 3.103688-18.891256 1.596358-6.874571 4.461615-13.861706 8.598842-20.956288 4.136204-7.096628 9.179057-13.738909 15.131629-19.925818 5.949502-6.186909 14.198374-11.685133 24.741497-16.494673 10.5421-4.808516 22.454408-7.90197 35.737946-9.279341l-0.020466-0.021489c18.793018-2.287089 35.406394-0.799202 49.833989 4.461615 14.428617 5.265934 25.307386 12.713556 32.635281 22.346961 7.330966 9.632381 12.486382 20.283975 15.461133 31.954783C525.178649 600.643899 525.639137 612.211353 523.587408 623.678522z" p-id="35574" fill="#cfcece"></path><path d="M511.705799 64.021106c-247.270686 0-447.724091 200.453405-447.724091 447.724091s200.453405 447.724091 447.724091 447.724091c247.27171 0 447.724091-200.453405 447.724091-447.724091S758.976486 64.021106 511.705799 64.021106zM722.199884 586.534554c-0.236384 14.20656-4.244674 29.333072-12.032034 45.370327-12.82612 27.493168-34.936697 51.090609-66.327638 70.796416-31.394011 19.703761-65.298192 33.568537-101.716636 41.588187-36.417421 8.018627-71.584362 10.651594-105.497753 7.893784-20.61348-1.378393-40.201607-3.780093-58.764382-7.212262-18.562774-3.431146-37.922704-8.930393-58.08286-16.494673-20.159132-7.567349-37.685297-16.73208-52.582589-27.492144-14.898315-10.761088-27.727505-24.849968-38.487569-42.268686-10.762111-17.417695-17.520025-37.123502-20.275789-59.117422L208.432635 585.170486c-0.453325-10.073426 2.983961-24.962531 10.314926-44.668339 7.330966-19.702738 18.553565-39.409568 33.670867-59.113329l7.564279-10.995425c5.499248-6.877641 13.291724-15.813151 23.37743-26.810622 10.088776-10.995425 21.201881-22.338774 33.341363-34.021861 12.139481-11.685133 26.456558-22.907733 42.950208-33.669844 16.494673-10.762111 32.762171-18.891256 48.799426-24.390503 13.285584-4.588505 25.196869-7.336082 35.738969-8.245801 10.5421-0.909719 19.133779-0.222057 25.77606 2.065032 6.641257 2.287089 12.139481 5.26491 16.495696 8.930393 4.351098 3.664459 7.67275 8.473999 9.959839 14.426571 2.287089 5.951549 3.778046 11.332093 4.464685 16.141632 0.690732 4.812609 1.035586 9.963932 1.035586 15.461133-0.468674 2.286066-1.157359 5.379521-2.068102 9.281387-0.909719 3.89982-1.481747 6.769171-1.713015 8.598842-0.234337 1.831718-0.462534 4.009314-0.680499 6.53074-0.222057 2.524496 0.12075 4.126994 1.030469 4.818749 0.909719 0.686638 2.171456 1.37737 3.783163 2.065032 1.612731 0.690732 3.90596 0.806365 6.884804 0.353041 2.976798-0.456395 6.757914-1.372254 11.347442-2.749624l8.930393-4.137227c5.952572-2.286066 13.510712-4.691859 22.672372-7.210215 9.16473-2.52245 18.900465-4.583388 29.205159-6.180769 10.307763-1.599428 20.615527-1.480724 30.92329 0.348947 10.308787 1.834788 18.673292 5.962805 25.093515 12.383028 3.650133 3.679809 6.51846 7.807826 8.598842 12.382005 2.082428 4.574179 3.461845 8.810666 4.136204 12.710486 0.671289 3.90289 0.789992 8.030907 0.349971 12.383028-0.438998 4.355191-1.010003 8.020674-1.713015 10.995425-0.705058 2.977821-1.739621 5.952572-3.101641 8.930393-1.363044 2.974751-2.28095 4.924149-2.750647 5.848195-0.468674 0.925069-0.930185 1.611707-1.384533 2.068102l-2.068102 3.431146c-1.363044 2.299369-1.019213 4.820796 1.034563 7.564279 2.052752 2.740414 6.517437 4.802376 13.392008 6.180769l0-0.064468c5.496178 0.912789 11.791557 2.971681 18.891256 6.180769 7.096628 3.212158 14.653745 8.255011 22.671349 15.132652 8.021697 6.877641 14.551414 14.778588 19.596314 23.708981C720.028429 560.76054 722.433198 572.325947 722.199884 586.534554zM686.813956 428.493098c-2.740414-31.169907-21.98471-42.627866-57.728796-34.373879-4.575202-0.014326-8.467859-1.620917-11.676947-4.814656-3.212158-3.197832-4.817726-7.090489-4.817726-11.680017-0.01535-2.741437 0.784876-5.372358 2.397606-7.896854 1.611707-2.521426 3.564175-4.581342 5.848195-6.176676 2.287089-1.599428 5.036713-2.396583 8.249895-2.396583 10.5421-1.834788 22.00006-1.606591 34.372855 0.681522 42.153052 7.330966 60.479443 37.114293 54.982242 89.352027 0 0.925069-0.228197 1.6158-0.681522 2.069125-0.455371 2.302439-1.37123 4.476965-2.749624 6.529717-1.381463 2.053776-3.212158 3.768837-5.499248 5.14723-2.287089 1.37737-4.808516 2.068102-7.565303 2.068102l-0.021489-0.021489c-4.574179-0.01535-8.466835-1.620917-11.680017-4.817726-3.209088-3.192715-4.813632-7.086395-4.813632-11.676947C687.276491 443.609377 687.738002 436.279435 686.813956 428.493098zM809.512463 422.682765c-0.690732 16.260335-3.784186 33.327036-9.280364 51.199079-2.287089 15.584953-9.845229 23.378453-22.674419 23.378453-4.575202 0.00307-8.584516-0.568958-12.029988-1.713015-3.445472-1.144056-6.311753-3.092431-8.598842-5.852288-2.290159-2.75474-3.433192-6.192026-3.433192-10.313903 0-1.847068 0.229221-4.024663 0.684592-6.53074 0.453325-2.506077 0.916882-4.568039 1.384533-6.180769 0.467651-1.611707 0.931209-3.326768 1.384533-5.145184 0.456395-1.816369 0.799202-2.960425 1.034563-3.431146 0.234337-0.468674 0.353041-0.931209 0.353041-1.384533 7.329942-25.203008 5.036713-51.323922-6.883781-78.360695-5.937223-9.634428-12.924357-18.10638-20.959358-25.421996-8.036024-7.317663-16.053628-13.043061-24.058952-17.176195-8.005324-4.137227-16.025998-7.573489-24.058952-10.316973-8.037047-2.741437-15.366989-4.455475-21.99392-5.143137-6.627954-0.690732-12.242835-1.034563-16.847713-1.034563-4.601808 0-7.696286 0.343831-9.279341 1.034563-1.585101 0.687662-3.415796 1.378393-5.499248 2.065032-2.080382 0.690732-4.02978 1.150196-5.849218 1.387603-1.818415 0.233314-3.5345 0.578168-5.146207 1.031493-1.611707 0.456395-2.64627 0.681522-3.098571 0.681522l-2.068102 0c-6.408967-0.013303-11.905144-2.308579-16.493649-6.883781-4.590552-4.575202-6.884804-10.299577-6.884804-17.176195 0-5.042853 1.606591-9.741875 4.814656-14.093996 3.212158-4.356214 7.340175-7.223518 12.383028-8.601912l0.681522-0.681522 0.680499-1.38351c0.471744-0.456395 0.931209-0.681522 1.38658-0.681522 33.911344-6.424316 60.948117-7.340175 81.108273-2.750647l-0.01842 0c9.616008 2.287089 18.897396 5.262864 27.842115 8.927323 8.942673 3.665483 18.223037 8.591679 27.843138 14.779611 9.617032 6.185886 18.325367 13.063527 26.127054 20.627806 7.798617 7.564279 14.675234 16.72901 20.627806 27.490098 5.952572 10.764158 10.414187 22.330588 13.392008 34.70543C809.059138 392.108422 810.203194 406.4255 809.512463 422.682765z" p-id="35575" fill="#cfcece"></path></svg>