<?xml version="1.0" standalone="no"?><!DOCTYPE svg PUBLIC "-//W3C//DTD SVG 1.1//EN" "http://www.w3.org/Graphics/SVG/1.1/DTD/svg11.dtd"><svg t="1493275129097" class="icon" style="" viewBox="0 0 1024 1024" version="1.1" xmlns="http://www.w3.org/2000/svg" p-id="36336" xmlns:xlink="http://www.w3.org/1999/xlink" width="26" height="26"><defs><style type="text/css"></style></defs><path d="M567.61004 512.152473c-9.592472 0-19.323091 9.695826-19.323091 19.321044 0 9.765411 9.730619 19.324114 19.323091 19.324114 14.680351 0 24.204262-9.558703 24.204262-19.324114C591.814302 521.847276 582.289368 512.152473 567.61004 512.152473z" p-id="36337" fill="#cfcece"></path><path d="M504.762667 420.216597c14.610766 0 24.203238-9.697873 24.203238-24.170492 0-14.543228-9.592472-24.136723-24.203238-24.136723-14.475689 0-28.984125 9.559727-28.984125 24.136723C475.777519 410.518724 490.3187 420.216597 504.762667 420.216597z" p-id="36338" fill="#cfcece"></path><path d="M369.470331 371.909381c-14.510482 0-29.122271 9.593496-29.122271 24.136723 0 14.473643 14.611789 24.170492 29.122271 24.170492 14.507412 0 24.136723-9.697873 24.136723-24.170492C393.607054 381.469108 383.97672 371.909381 369.470331 371.909381z" p-id="36339" fill="#cfcece"></path><path d="M511.999488 102.677521c-226.061642 0-409.322479 183.259814-409.322479 409.322479 0 226.061642 183.260837 409.323503 409.322479 409.323503 226.062666 0 409.322479-183.26186 409.322479-409.323503C921.321968 285.937334 738.062154 102.677521 511.999488 102.677521zM432.282912 618.596783c-24.1357 0-43.526329-4.916986-67.696822-9.66308l-67.593468 33.867342 19.323091-58.138118c-48.409546-33.865295-77.358879-77.460186-77.358879-130.546242 0-92.003414 87.052658-164.410514 193.326077-164.410514 95.077426 0 178.340781 57.864896 195.069791 135.768173-6.213515-0.683569-12.391215-1.159406-18.674315-1.159406-91.798752 0-164.309206 68.549236-164.342975 153.008836 0 14.098089 2.218528 27.616988 5.974062 40.556695C444.369182 618.322537 438.361351 618.596783 432.282912 618.596783zM717.408765 686.36319l14.544251 48.336892-53.016471-29.084409c-19.324114 4.846378-38.748513 9.658987-58.004065 9.658987-91.967598 0-164.410514-62.779835-164.410514-140.272767 0-77.258595 72.409147-140.277884 164.410514-140.277884 86.882789 0 164.240645 62.98552 164.240645 140.277884C785.174148 618.596783 756.224816 657.20715 717.408765 686.36319z" p-id="36340" fill="#eea807"></path><path d="M673.952021 512.152473c-9.558703 0-19.218714 9.695826-19.218714 19.321044 0 9.765411 9.694803 19.324114 19.218714 19.324114 14.544251 0 24.204262-9.558703 24.204262-19.324114C698.156282 521.847276 688.495248 512.152473 673.952021 512.152473z" p-id="36341" fill="#eea807"></path></svg>