<?xml version="1.0" standalone="no"?><!DOCTYPE svg PUBLIC "-//W3C//DTD SVG 1.1//EN" "http://www.w3.org/Graphics/SVG/1.1/DTD/svg11.dtd"><svg t="1493370115652" class="icon" style="" viewBox="0 0 1024 1024" version="1.1" xmlns="http://www.w3.org/2000/svg" p-id="1000" xmlns:xlink="http://www.w3.org/1999/xlink" width="20" height="20"><defs><style type="text/css"></style></defs><path d="M133.808776 225.239619C136.560838 225.235398 140.070234 225.230042 145.163443 225.22227 174.417144 225.178162 206.052586 225.134054 238.913557 225.092888 282.571962 225.038194 325.040674 224.99295 365.056699 224.960368 527.739621 224.827912 618.471643 224.904824 623.573312 225.338578 813.167765 241.458296 960 400.519072 960 592.002142 960 795.24293 795.240787 960.002142 592 960.002142L86.0922 960.002142C77.255643 960.002142 70.0922 952.838698 70.0922 944.002142 70.0922 935.165586 77.255643 928.002142 86.0922 928.002142L592 928.002142C777.567675 928.002142 928 777.569818 928 592.002142 928 417.17552 793.928261 271.937965 620.862386 257.223541 617.323536 256.922661 516.42707 256.837134 365.082754 256.960358 325.071789 256.992934 282.607653 257.038174 238.953646 257.092862 206.095558 257.134026 174.462803 257.17813 145.211693 257.222234 142.244326 257.226762 139.814616 257.23047 137.75909 257.233611L344.479982 386.43417C351.973368 391.117534 354.251338 400.988741 349.567973 408.482125 344.884608 415.975509 335.013402 418.25348 327.520018 413.570115L71.520018 253.570115C61.493328 247.303434 61.493328 232.70085 71.520018 226.43417L327.520018 66.434169C335.013402 61.750804 344.884608 64.028774 349.567973 71.522159 354.251338 79.015543 351.973368 88.886749 344.479982 93.570115L133.808776 225.239619ZM94.30755 249.927885C92.70773 247.441843 91.777509 244.483709 91.772178 241.307917 91.765502 237.331227 93.210171 233.690949 95.606624 230.888318L88.479982 226.43417 88.479982 253.570115 94.30755 249.927885Z" p-id="1001" fill="#707070"></path></svg>