<?xml version="1.0" encoding="utf-8"?>
<!-- Generator: Adobe Illustrator 21.0.0, SVG Export Plug-In . SVG Version: 6.00 Build 0)  -->
<svg version="1.1" id="图层_1" xmlns="http://www.w3.org/2000/svg" xmlns:xlink="http://www.w3.org/1999/xlink" x="0px" y="0px"
	 viewBox="0 0 46 46" style="enable-background:new 0 0 46 46;" xml:space="preserve">
<style type="text/css">
	.st0{fill-rule:evenodd;clip-rule:evenodd;fill:#eea807;}
	.st1{fill-rule:evenodd;clip-rule:evenodd;fill:none;stroke:#eea807;stroke-miterlimit:10;}
</style>
<g>
	<path class="st0" d="M19.2,29.2c-0.1,0-0.1,0-0.2,0l-0.2,0c-4,0-8.3-1.1-8.3-3.2c0-0.2,0.2-0.4,0.4-0.4s0.4,0.2,0.4,0.4
		c0,1.1,3.2,2.3,7.4,2.3l0.2,0c0.2,0,0.5,0,0.7,0c0.2,0,0.4,0.2,0.5,0.4c0,0.2-0.2,0.4-0.4,0.5C19.5,29.2,19.3,29.2,19.2,29.2
		L19.2,29.2z M19.5,25.8c-0.1,0-0.2,0-0.4,0l-0.4,0c-4,0-8.3-1.1-8.3-3.2c0-0.2,0.2-0.4,0.4-0.4s0.4,0.2,0.4,0.4
		c0,1.1,3.2,2.3,7.4,2.3l0.4,0c0.2,0,0.4,0,0.7,0c0.2,0,0.4,0.2,0.5,0.4c0,0.2-0.2,0.4-0.4,0.5C19.7,25.8,19.6,25.8,19.5,25.8
		L19.5,25.8z M18.7,22.4c-4,0-8.3-1.1-8.3-3.2c0-0.2,0.2-0.4,0.4-0.4s0.4,0.2,0.4,0.4c0,1.1,3.2,2.3,7.4,2.3c4.2,0,7.4-1.2,7.4-2.3
		c0-0.2,0.2-0.4,0.4-0.4s0.4,0.2,0.4,0.4C27,21.3,22.7,22.4,18.7,22.4L18.7,22.4z"/>
	<path class="st0" d="M19.2,32.5c-0.1,0-0.2,0-0.2,0l-0.2,0c-4,0-8.3-1.1-8.3-3.2V15.6c0-0.2,0.2-0.4,0.4-0.4c0.2,0,0.4,0.2,0.4,0.4
		v13.7c0,1.1,3.2,2.3,7.4,2.3l0.2,0c0.2,0,0.5,0,0.7,0c0.2,0,0.4,0.2,0.5,0.4c0,0.2-0.2,0.4-0.4,0.5C19.5,32.5,19.4,32.5,19.2,32.5
		L19.2,32.5z M26.6,23.5c-0.2,0-0.4-0.2-0.4-0.4v-7.4c0-0.2,0.2-0.4,0.4-0.4s0.4,0.2,0.4,0.4V23C27,23.3,26.8,23.5,26.6,23.5
		L26.6,23.5z"/>
	<path class="st0" d="M18.7,18.8c-4,0-8.3-1.1-8.3-3.2c0-2.1,4.3-3.2,8.3-3.2c4,0,8.3,1.1,8.3,3.2C27,17.7,22.7,18.8,18.7,18.8
		L18.7,18.8z M18.7,13.3c-4.2,0-7.4,1.2-7.4,2.3s3.2,2.3,7.4,2.3c4.2,0,7.4-1.2,7.4-2.3S23,13.3,18.7,13.3L18.7,13.3z M27.9,32.6
		c-4.2,0-8.7-1.1-8.7-3.1c0-0.2,0.2-0.4,0.4-0.4c0.2,0,0.4,0.2,0.4,0.4c0,0.9,3,2.2,7.8,2.2c4.9,0,7.8-1.3,7.8-2.2
		c0-0.2,0.2-0.4,0.4-0.4c0.2,0,0.4,0.2,0.4,0.4C36.6,31.5,32.1,32.6,27.9,32.6L27.9,32.6z"/>
	<path class="st0" d="M27.9,35.8c-4.2,0-8.7-1.1-8.7-3.1V26c0-0.2,0.2-0.4,0.4-0.4c0.2,0,0.4,0.2,0.4,0.4v6.7c0,0.9,3,2.2,7.8,2.2
		c4.9,0,7.8-1.3,7.8-2.2V26c0-0.2,0.2-0.4,0.4-0.4c0.2,0,0.4,0.2,0.4,0.4v6.7C36.6,34.7,32.1,35.8,27.9,35.8L27.9,35.8z"/>
	<path class="st0" d="M27.9,29.1c-4.2,0-8.7-1.2-8.7-3.3s4.5-3.3,8.7-3.3c4.2,0,8.7,1.2,8.7,3.3S32.1,29.1,27.9,29.1L27.9,29.1z
		 M27.9,23.4c-4.5,0-7.8,1.3-7.8,2.4c0,1.1,3.3,2.4,7.8,2.4c4.5,0,7.8-1.3,7.8-2.4C35.8,24.7,32.4,23.4,27.9,23.4L27.9,23.4z"/>
</g>
<circle class="st1" cx="22.7" cy="23" r="21.8"/>
</svg>
