<?xml version="1.0" encoding="utf-8"?>
<!-- Generator: Adobe Illustrator 16.0.0, SVG Export Plug-In . SVG Version: 6.00 Build 0)  -->
<!DOCTYPE svg PUBLIC "-//W3C//DTD SVG 1.1//EN" "http://www.w3.org/Graphics/SVG/1.1/DTD/svg11.dtd">
<svg version="1.1" id="图层_1" xmlns="http://www.w3.org/2000/svg" xmlns:xlink="http://www.w3.org/1999/xlink" x="0px" y="0px"
	 width="654px" height="97px" viewBox="0 0 654 97" enable-background="new 0 0 654 97" xml:space="preserve">
<g>
	<path fill="#FFFFFF" d="M126.162,20.839c-2.6,2.236-6.084,4.732-9.36,6.917c2.756,7.8,8.581,14.353,15.705,17.057
		c-0.364,0.312-0.832,0.833-1.04,1.249c-7.072-2.965-12.948-9.569-15.86-17.473c-1.196,0.728-2.34,1.456-3.38,2.08
		c2.028,7.125,0.728,14.145-2.288,16.121c-1.456,0.988-2.548,1.248-4.576,1.248c-1.092,0-2.912-0.052-4.628-0.156
		c0-0.416-0.208-1.04-0.416-1.456c1.872,0.156,3.796,0.26,4.732,0.26c1.56,0,2.652-0.104,3.848-0.884
		c2.34-1.456,3.588-6.76,2.392-12.688c-5.72,4.94-15.341,9.933-23.453,12.272c-0.156-0.416-0.572-1.04-0.884-1.404
		c8.372-2.08,18.772-7.384,23.973-12.376c-0.468-1.82-1.092-3.64-2.08-5.408c-4.992,3.744-13.468,7.8-19.969,9.88
		c-0.156-0.416-0.572-1.04-0.884-1.404c6.552-1.769,15.549-5.98,20.177-9.673c-0.936-1.56-2.132-3.12-3.536-4.472
		c-4.888,2.86-10.66,5.2-15.757,6.864c-0.156-0.313-0.676-1.04-1.04-1.3c6.917-2.08,14.873-5.356,20.021-9.413H93.504v-1.508h30.993
		v1.508h-14.508c-1.248,1.092-2.652,2.132-4.265,3.12c2.964,2.809,4.889,6.24,6.084,9.673c4.316-2.652,9.829-6.656,13.052-9.568
		L126.162,20.839z M89.604,16.107h-1.508V6.486h20.437c-0.729-1.508-1.716-3.432-2.756-4.836l1.456-0.468
		c1.092,1.612,2.392,3.848,3.016,5.304h20.021v9.621h-1.508V7.995H89.604V16.107z"/>
	<path fill="#FFFFFF" d="M142.956,7.942v14.249c0,7.592-0.468,18.305-4.056,26.001c-0.26-0.313-0.937-0.729-1.3-0.937
		c3.484-7.488,3.848-17.681,3.848-25.064V6.435h21.945c-0.468-1.508-1.352-3.484-2.236-4.992l1.352-0.364
		c1.092,1.664,2.028,3.796,2.444,5.356h18.98v1.508H142.956z M184.402,45.592c-0.312,0.469-0.572,1.092-0.676,1.456h-12.584
		c-8.217,0-14.353-1.144-18.773-5.46c-2.288,2.808-5.044,4.784-8.112,6.292c-0.156-0.364-0.676-0.884-1.04-1.144
		c3.12-1.404,5.876-3.433,8.165-6.24c-2.028-2.34-3.588-5.356-4.784-9.413l1.248-0.572c1.092,3.744,2.548,6.656,4.42,8.788
		c2.288-3.276,4.004-7.437,4.94-12.74h-8.789v-0.052h-1.3c2.288-3.068,5.305-7.852,7.645-11.752h-9.517v-1.508h12.169
		c-2.34,3.744-5.305,8.424-7.593,11.804h7.957l0.312-0.052l0.884,0.313c-1.092,6.448-3.016,11.388-5.668,15.08
		c4.212,4.108,10.192,5.2,17.837,5.2H184.402z M170.934,37.271v-11.18h-8.841v-1.508h8.841v-8.84c-3.068,0.52-6.292,0.988-9.101,1.3
		c-0.104-0.416-0.364-0.988-0.572-1.352c6.24-0.78,14.301-2.028,18.305-3.796l1.04,1.353c-2.08,0.832-4.992,1.612-8.164,2.236v9.1
		h8.736v1.508h-8.736v11.18h10.452v1.508h-22.517v-1.508H170.934z"/>
	<path fill="#FFFFFF" d="M214.977,1.599c-0.312,0.572-0.676,1.092-1.092,1.612c5.148,6.396,15.029,13.052,23.037,15.861
		c-0.416,0.364-0.884,0.936-1.196,1.352c-7.696-3.016-17.316-9.516-22.776-16.068c-5.46,6.813-13.989,12.845-22.673,16.121
		c-0.313-0.364-0.729-1.04-1.145-1.352c9.725-3.432,19.501-10.452,24.493-18.201L214.977,1.599z M213.625,44.76h21.789v1.508
		h-44.722V44.76h21.425V29.264h-19.241v-1.508h19.241v-8.789h-11.961v-1.508h25.897v1.508h-12.429v8.789h19.813v1.508h-19.813V44.76
		z M199.637,32.02c2.132,3.172,4.316,7.437,5.2,10.088l-1.456,0.572c-0.832-2.652-2.964-6.968-5.148-10.192L199.637,32.02z
		 M219.969,42.16c2.08-2.704,4.784-7.229,6.24-10.297l1.456,0.729c-1.872,3.38-4.42,7.54-6.5,10.244L219.969,42.16z"/>
	<path fill="#FFFFFF" d="M242.432,3.938h23.193v1.508h-23.193V3.938z M265.157,45.488c0,1.092-0.26,1.611-1.145,1.924
		c-0.884,0.26-2.6,0.26-5.46,0.26c-0.104-0.416-0.364-0.988-0.624-1.456c2.444,0.052,4.368,0.052,4.94,0.052
		c0.624-0.052,0.78-0.207,0.78-0.779V24.896h-18.981v23.089h-1.508V23.387h21.997V45.488z M263.077,9.555v9.828H244.98V9.555
		H263.077z M261.569,11.063h-15.081v6.813h15.081V11.063z M255.068,35.556v11.492h-1.508V35.556h-7.021v-1.508h8.425
		c1.456-2.236,3.224-5.668,4.212-7.957l1.404,0.676c-1.196,2.392-2.704,5.2-4.057,7.28h4.992v1.508H255.068z M249.4,26.299
		c1.456,2.132,2.912,4.992,3.484,6.76l-1.3,0.572c-0.572-1.82-2.08-4.732-3.484-6.917L249.4,26.299z M287.258,48.244
		c-0.208-1.248-0.572-2.809-1.092-4.42c-6.553,1.195-13.261,2.34-18.201,3.172l-0.624-1.612c2.601-0.416,5.876-0.936,9.517-1.508
		V30.043h-8.477V12.103h8.477V1.286h1.508v10.816h8.061v17.941h-8.061v13.573l7.333-1.248c-0.936-2.704-2.132-5.616-3.432-8.061
		l1.456-0.416c2.444,4.42,4.524,10.192,5.044,13.729L287.258,48.244z M269.889,28.535h6.968V13.611h-6.968V28.535z M284.918,13.611
		h-6.553v14.924h6.553V13.611z"/>
	<path fill="#FFFFFF" d="M306.341,1.65c-0.884,2.6-1.924,5.72-2.86,7.956h9.309v32.97h-15.081v4.472H296.2V9.606h5.72
		c0.988-2.34,2.236-6.032,2.756-8.476L306.341,1.65z M311.281,11.115h-13.573v13.521h13.573V11.115z M311.281,41.068V26.144h-13.573
		v14.924H311.281z M338.426,10.854c-0.884,24.389-1.716,32.241-3.744,34.581c-0.884,1.041-1.82,1.353-3.328,1.404
		c-1.561,0.053-4.524-0.052-7.332-0.26c-0.104-0.52-0.208-1.145-0.521-1.561c3.433,0.261,6.553,0.313,7.645,0.313
		c1.04,0,1.664-0.104,2.132-0.78c1.769-1.872,2.704-10.036,3.588-33.333h-15.6c-1.457,3.9-3.173,7.332-5.148,10.088
		c-0.26-0.208-0.988-0.624-1.404-0.78c3.692-4.889,6.396-12.117,8.008-19.657l1.561,0.313c-0.676,2.964-1.508,5.824-2.444,8.528
		h16.589V10.854z M329.222,33.84c-1.716-3.172-5.46-8.425-8.736-12.169l1.248-0.728c3.276,3.796,7.072,8.892,8.788,12.012
		L329.222,33.84z"/>
	<path fill="#FFFFFF" d="M392.922,45.28c-0.313,0.416-0.676,1.092-0.78,1.508h-19.917c-12.896,0-18.772-2.34-22.204-10.973
		c-0.572,4.992-1.664,9.204-3.692,12.532c-0.26-0.26-0.884-0.779-1.248-1.039c3.276-5.253,3.848-13.261,4.057-22.777l1.611,0.104
		c-0.104,2.704-0.208,5.252-0.363,7.644c1.3,4.681,3.224,7.749,6.084,9.725V19.695H346.12v-1.508h9.933v-8.112h-8.996V8.566h8.996
		v-7.28h1.508v7.28h8.996v1.508h-8.996v8.112h10.192v1.508h-9.776v9.204h9.412v1.508h-9.412V42.94
		c3.38,1.716,7.904,2.34,14.093,2.34H392.922z M378.726,5.291c-0.78,9.1-4.212,14.353-10.713,17.785
		c-0.208-0.312-0.832-0.936-1.196-1.248c6.396-2.964,9.568-8.061,10.297-16.537h-8.84V3.782h22.62c0,0,0,0.676-0.052,0.988
		c-0.572,10.036-1.04,13.572-2.184,14.769c-0.625,0.572-1.248,0.832-2.549,0.832c-1.04,0.052-3.38,0-5.668-0.156
		c-0.052-0.468-0.208-1.04-0.416-1.508c2.548,0.26,4.992,0.26,5.721,0.26c0.832,0.052,1.352,0,1.664-0.416
		c0.832-0.936,1.403-4.212,1.924-13.26H378.726z M370.354,24.011h19.448V39.82h-19.448V24.011z M371.861,38.312h16.433V25.52
		h-16.433V38.312z"/>
	<path fill="#FFFFFF" d="M414.553,27.392c0.052,0.364,0.156,0.988,0.26,1.352c-14.301,4.42-15.756,4.94-16.641,5.616
		c-0.052-0.416-0.312-1.248-0.52-1.664c0.884-0.156,2.236-1.612,3.796-3.536c1.144-1.248,4.004-4.732,6.864-8.996
		c-8.58,1.3-9.776,1.508-10.4,1.872c-0.104-0.416-0.364-1.248-0.572-1.664c0.78-0.156,1.717-1.56,2.965-3.38
		c1.195-1.82,5.46-8.893,8.008-15.445l1.508,0.728c-2.808,6.292-6.188,12.688-9.62,17.473l9.204-1.196
		c1.301-1.872,2.549-3.9,3.641-5.876l1.508,0.728c-3.952,6.5-8.477,12.844-12.896,17.785L414.553,27.392z M415.437,37.948
		c-6.344,2.184-12.896,4.472-17.628,6.084l-0.416-1.508c4.42-1.456,11.128-3.796,17.784-6.084L415.437,37.948z M441.958,20.319
		c-1.664,7.228-4.576,12.896-8.32,17.473c3.172,3.952,6.812,7.124,10.92,9.101c-0.416,0.312-0.936,0.884-1.248,1.3
		c-4.004-2.08-7.592-5.252-10.66-9.205c-3.796,4.16-8.216,7.176-13.001,9.308c-0.207-0.364-0.779-0.987-1.144-1.248
		c4.888-2.028,9.412-5.096,13.156-9.308c-3.64-4.992-6.5-11.077-8.632-17.525c-1.145,11.701-3.381,20.853-8.685,27.978
		c-0.312-0.261-0.988-0.729-1.353-0.988c7.229-9.048,8.736-23.037,9.309-40.821h-6.552V4.875h21.685
		c-1.404,4.68-3.172,10.869-4.628,15.029h7.8l0.364-0.104L441.958,20.319z M423.913,6.383c-0.156,3.588-0.364,6.916-0.572,10.088
		c2.028,7.333,5.2,14.353,9.36,20.021c3.225-4.004,5.772-8.997,7.332-15.081h-9.359c1.455-3.796,3.328-10.088,4.68-15.028H423.913z"
		/>
	<path fill="#FFFFFF" d="M464.524,3.263c16.641,11.648,13.989,32.657,31.878,42.745c-0.364,0.416-0.729,1.04-0.832,1.561
		c-13.261-7.437-15.705-20.905-22.258-32.085c-3.848,15.497-10.556,25.845-22.309,32.605c-0.26-0.312-0.936-0.936-1.404-1.248
		c12.273-6.552,18.93-17.524,22.465-33.281c-2.184-3.38-4.888-6.5-8.476-9.048L464.524,3.263z"/>
	<path fill="#FFFFFF" d="M543.565,7.11v39.105h-1.508v-4.264h-33.854v4.68h-1.508V7.11H543.565z M542.058,40.444V8.619h-33.854
		v31.825H542.058z"/>
</g>
<g>
	<path fill="#FFFFFF" d="M4.108,80.449v-1.688h9.445v1.688H9.71V96H7.952V80.449H4.108z"/>
	<path fill="#FFFFFF" d="M18.415,78.762h1.723v7.23h8.777v-7.23h1.723V96h-1.723v-8.32h-8.777V96h-1.723V78.762z"/>
	<path fill="#FFFFFF" d="M37.244,78.762h9.879v1.688h-8.156v5.402h8.086v1.688h-8.086v6.773h8.086V96h-9.809V78.762z"/>
	<path fill="#FFFFFF" d="M59.763,92.789l1.465-0.879c1.031,1.898,2.223,2.848,3.574,2.848c0.578,0,1.121-0.135,1.629-0.404
		s0.895-0.631,1.16-1.084s0.398-0.934,0.398-1.441c0-0.578-0.195-1.145-0.586-1.699c-0.539-0.766-1.523-1.688-2.953-2.766
		c-1.438-1.086-2.332-1.871-2.684-2.355c-0.609-0.813-0.914-1.691-0.914-2.637c0-0.75,0.18-1.434,0.539-2.051
		s0.865-1.104,1.518-1.459s1.361-0.533,2.127-0.533c0.813,0,1.572,0.201,2.279,0.604s1.455,1.143,2.244,2.221l-1.406,1.066
		c-0.648-0.859-1.201-1.426-1.658-1.699s-0.955-0.41-1.494-0.41c-0.695,0-1.264,0.211-1.705,0.633s-0.662,0.941-0.662,1.559
		c0,0.375,0.078,0.738,0.234,1.09s0.441,0.734,0.855,1.148c0.227,0.219,0.969,0.793,2.227,1.723c1.492,1.102,2.516,2.082,3.07,2.941
		s0.832,1.723,0.832,2.59c0,1.25-0.475,2.336-1.424,3.258s-2.104,1.383-3.463,1.383c-1.047,0-1.996-0.279-2.848-0.838
		S60.481,94.102,59.763,92.789z"/>
	<path fill="#FFFFFF" d="M75.956,78.762h1.723v10.406c0,1.234,0.023,2.004,0.07,2.309c0.086,0.68,0.285,1.248,0.598,1.705
		s0.793,0.84,1.441,1.148s1.301,0.463,1.957,0.463c0.57,0,1.117-0.121,1.641-0.363s0.961-0.578,1.313-1.008s0.609-0.949,0.773-1.559
		c0.117-0.438,0.176-1.336,0.176-2.695V78.762h1.723v10.406c0,1.539-0.15,2.783-0.451,3.732s-0.902,1.775-1.805,2.479
		s-1.994,1.055-3.275,1.055c-1.391,0-2.582-0.332-3.574-0.996s-1.656-1.543-1.992-2.637c-0.211-0.672-0.316-1.883-0.316-3.633
		V78.762z"/>
	<path fill="#FFFFFF" d="M94.001,78.762h3.434c1.969,0,3.297,0.086,3.984,0.258c0.984,0.242,1.789,0.74,2.414,1.494
		s0.938,1.701,0.938,2.842c0,1.148-0.305,2.096-0.914,2.842s-1.449,1.248-2.52,1.506c-0.781,0.188-2.242,0.281-4.383,0.281h-1.23V96
		h-1.723V78.762z M95.724,80.449v5.848l2.918,0.035c1.18,0,2.043-0.107,2.59-0.321c0.547-0.215,0.977-0.562,1.289-1.041
		s0.469-1.016,0.469-1.608c0-0.576-0.156-1.105-0.469-1.584c-0.313-0.48-0.725-0.821-1.236-1.023
		c-0.512-0.203-1.35-0.305-2.514-0.305H95.724z"/>
	<path fill="#FFFFFF" d="M110.627,78.762h9.879v1.688h-8.156v5.402h8.086v1.688h-8.086v6.773h8.086V96h-9.809V78.762z"/>
	<path fill="#FFFFFF" d="M125.977,78.762h3.434c1.914,0,3.211,0.078,3.891,0.234c1.023,0.235,1.855,0.737,2.496,1.508
		s0.961,1.719,0.961,2.846c0,0.939-0.221,1.764-0.662,2.476s-1.072,1.25-1.893,1.613c-0.82,0.364-1.953,0.55-3.398,0.558L137.004,96
		h-2.131l-6.2-8.004h-0.974V96h-1.723V78.762z M127.699,80.449v5.859l2.97,0.023c1.15,0,2.001-0.109,2.553-0.328
		s0.982-0.568,1.291-1.049c0.31-0.48,0.464-1.018,0.464-1.611c0-0.578-0.156-1.104-0.47-1.576c-0.313-0.473-0.724-0.811-1.232-1.014
		s-1.354-0.305-2.535-0.305H127.699z"/>
	<path fill="#FFFFFF" d="M142.603,78.762h1.723V96h-1.723V78.762z"/>
	<path fill="#FFFFFF" d="M158.884,78.328c2.611,0,4.796,0.871,6.555,2.613s2.639,3.887,2.639,6.434c0,2.523-0.878,4.664-2.633,6.422
		s-3.895,2.637-6.42,2.637c-2.557,0-4.714-0.875-6.473-2.625s-2.639-3.867-2.639-6.352c0-1.656,0.4-3.191,1.202-4.605
		c0.801-1.414,1.894-2.521,3.277-3.322S157.273,78.328,158.884,78.328z M158.96,80.004c-1.275,0-2.484,0.332-3.627,0.997
		s-2.035,1.56-2.676,2.686c-0.643,1.126-0.963,2.381-0.963,3.765c0,2.049,0.71,3.778,2.13,5.189
		c1.421,1.412,3.133,2.117,5.136,2.117c1.338,0,2.576-0.324,3.715-0.974c1.139-0.648,2.026-1.536,2.664-2.662
		s0.957-2.377,0.957-3.753c0-1.368-0.319-2.605-0.957-3.712s-1.535-1.991-2.693-2.656S160.259,80.004,158.96,80.004z"/>
	<path fill="#FFFFFF" d="M174.028,78.762h3.434c1.914,0,3.211,0.078,3.891,0.234c1.023,0.235,1.855,0.737,2.496,1.508
		s0.961,1.719,0.961,2.846c0,0.939-0.221,1.764-0.662,2.476s-1.072,1.25-1.893,1.613c-0.82,0.364-1.953,0.55-3.398,0.558L185.056,96
		h-2.131l-6.2-8.004h-0.974V96h-1.723V78.762z M175.751,80.449v5.859l2.97,0.023c1.15,0,2.001-0.109,2.553-0.328
		s0.982-0.568,1.291-1.049c0.31-0.48,0.464-1.018,0.464-1.611c0-0.578-0.156-1.104-0.47-1.576c-0.313-0.473-0.724-0.811-1.232-1.014
		s-1.354-0.305-2.535-0.305H175.751z"/>
	<path fill="#FFFFFF" d="M206.988,78.762L215.027,96h-1.86l-2.712-5.672h-7.426L200.344,96h-1.922l8.145-17.238H206.988z
		 M206.771,82.424l-2.953,6.24h5.893L206.771,82.424z"/>
	<path fill="#FFFFFF" d="M236.153,81.961l-1.359,1.043c-0.75-0.977-1.65-1.717-2.701-2.221s-2.205-0.756-3.463-0.756
		c-1.375,0-2.648,0.33-3.82,0.99s-2.08,1.547-2.725,2.66s-0.967,2.365-0.967,3.756c0,2.102,0.721,3.855,2.162,5.262
		s3.26,2.109,5.455,2.109c2.414,0,4.434-0.945,6.059-2.836L236.153,93c-0.859,1.094-1.932,1.939-3.217,2.537
		s-2.721,0.896-4.307,0.896c-3.016,0-5.395-1.004-7.137-3.012c-1.461-1.695-2.191-3.742-2.191-6.141
		c0-2.523,0.885-4.646,2.654-6.369s3.986-2.584,6.65-2.584c1.609,0,3.063,0.318,4.359,0.955S235.325,80.813,236.153,81.961z"/>
	<path fill="#FFFFFF" d="M258.065,81.961l-1.359,1.043c-0.75-0.977-1.65-1.717-2.701-2.221s-2.205-0.756-3.463-0.756
		c-1.375,0-2.648,0.33-3.82,0.99s-2.08,1.547-2.725,2.66s-0.967,2.365-0.967,3.756c0,2.102,0.721,3.855,2.162,5.262
		s3.26,2.109,5.455,2.109c2.414,0,4.434-0.945,6.059-2.836L258.065,93c-0.859,1.094-1.932,1.939-3.217,2.537
		s-2.721,0.896-4.307,0.896c-3.016,0-5.395-1.004-7.137-3.012c-1.461-1.695-2.191-3.742-2.191-6.141
		c0-2.523,0.885-4.646,2.654-6.369s3.986-2.584,6.65-2.584c1.609,0,3.063,0.318,4.359,0.955S257.237,80.813,258.065,81.961z"/>
	<path fill="#FFFFFF" d="M263.935,78.762h9.879v1.688h-8.156v5.402h8.086v1.688h-8.086v6.773h8.086V96h-9.809V78.762z"/>
	<path fill="#FFFFFF" d="M277.408,92.789l1.465-0.879c1.031,1.898,2.223,2.848,3.574,2.848c0.578,0,1.121-0.135,1.629-0.404
		s0.895-0.631,1.16-1.084s0.398-0.934,0.398-1.441c0-0.578-0.195-1.145-0.586-1.699c-0.539-0.766-1.523-1.688-2.953-2.766
		c-1.438-1.086-2.332-1.871-2.684-2.355c-0.609-0.813-0.914-1.691-0.914-2.637c0-0.75,0.18-1.434,0.539-2.051
		s0.865-1.104,1.518-1.459s1.361-0.533,2.127-0.533c0.813,0,1.572,0.201,2.279,0.604s1.455,1.143,2.244,2.221l-1.406,1.066
		c-0.648-0.859-1.201-1.426-1.658-1.699s-0.955-0.41-1.494-0.41c-0.695,0-1.264,0.211-1.705,0.633s-0.662,0.941-0.662,1.559
		c0,0.375,0.078,0.738,0.234,1.09s0.441,0.734,0.855,1.148c0.227,0.219,0.969,0.793,2.227,1.723c1.492,1.102,2.516,2.082,3.07,2.941
		s0.832,1.723,0.832,2.59c0,1.25-0.475,2.336-1.424,3.258s-2.104,1.383-3.463,1.383c-1.047,0-1.996-0.279-2.848-0.838
		S278.127,94.102,277.408,92.789z"/>
	<path fill="#FFFFFF" d="M291.762,92.789l1.465-0.879c1.031,1.898,2.223,2.848,3.574,2.848c0.578,0,1.121-0.135,1.629-0.404
		s0.895-0.631,1.16-1.084s0.398-0.934,0.398-1.441c0-0.578-0.195-1.145-0.586-1.699c-0.539-0.766-1.523-1.688-2.953-2.766
		c-1.438-1.086-2.332-1.871-2.684-2.355c-0.609-0.813-0.914-1.691-0.914-2.637c0-0.75,0.18-1.434,0.539-2.051
		s0.865-1.104,1.518-1.459s1.361-0.533,2.127-0.533c0.813,0,1.572,0.201,2.279,0.604s1.455,1.143,2.244,2.221l-1.406,1.066
		c-0.648-0.859-1.201-1.426-1.658-1.699s-0.955-0.41-1.494-0.41c-0.695,0-1.264,0.211-1.705,0.633s-0.662,0.941-0.662,1.559
		c0,0.375,0.078,0.738,0.234,1.09s0.441,0.734,0.855,1.148c0.227,0.219,0.969,0.793,2.227,1.723c1.492,1.102,2.516,2.082,3.07,2.941
		s0.832,1.723,0.832,2.59c0,1.25-0.475,2.336-1.424,3.258s-2.104,1.383-3.463,1.383c-1.047,0-1.996-0.279-2.848-0.838
		S292.48,94.102,291.762,92.789z"/>
	<path fill="#FFFFFF" d="M315.229,80.449v-1.688h9.445v1.688h-3.844V96h-1.758V80.449H315.229z"/>
	<path fill="#FFFFFF" d="M337.769,78.328c2.611,0,4.796,0.871,6.555,2.613s2.639,3.887,2.639,6.434c0,2.523-0.878,4.664-2.633,6.422
		s-3.895,2.637-6.42,2.637c-2.557,0-4.714-0.875-6.473-2.625s-2.639-3.867-2.639-6.352c0-1.656,0.4-3.191,1.202-4.605
		c0.801-1.414,1.894-2.521,3.277-3.322S336.158,78.328,337.769,78.328z M337.845,80.004c-1.275,0-2.484,0.332-3.627,0.997
		s-2.035,1.56-2.676,2.686c-0.643,1.126-0.963,2.381-0.963,3.765c0,2.049,0.71,3.778,2.13,5.189
		c1.421,1.412,3.133,2.117,5.136,2.117c1.338,0,2.576-0.324,3.715-0.974c1.139-0.648,2.026-1.536,2.664-2.662
		s0.957-2.377,0.957-3.753c0-1.368-0.319-2.605-0.957-3.712s-1.535-1.991-2.693-2.656S339.144,80.004,337.845,80.004z"/>
	<path fill="#FFFFFF" d="M361.84,78.762h1.723v7.23h8.777v-7.23h1.723V96h-1.723v-8.32h-8.777V96h-1.723V78.762z"/>
	<path fill="#FFFFFF" d="M388.866,78.328c2.611,0,4.796,0.871,6.555,2.613s2.639,3.887,2.639,6.434c0,2.523-0.878,4.664-2.633,6.422
		s-3.895,2.637-6.42,2.637c-2.557,0-4.714-0.875-6.473-2.625s-2.639-3.867-2.639-6.352c0-1.656,0.4-3.191,1.202-4.605
		c0.801-1.414,1.894-2.521,3.277-3.322S387.256,78.328,388.866,78.328z M388.942,80.004c-1.275,0-2.484,0.332-3.627,0.997
		s-2.035,1.56-2.676,2.686c-0.643,1.126-0.963,2.381-0.963,3.765c0,2.049,0.71,3.778,2.13,5.189
		c1.421,1.412,3.133,2.117,5.136,2.117c1.338,0,2.576-0.324,3.715-0.974c1.139-0.648,2.026-1.536,2.664-2.662
		s0.957-2.377,0.957-3.753c0-1.368-0.319-2.605-0.957-3.712s-1.535-1.991-2.693-2.656S390.241,80.004,388.942,80.004z"/>
	<path fill="#FFFFFF" d="M403.976,78.762h1.723v10.406c0,1.234,0.023,2.004,0.07,2.309c0.086,0.68,0.285,1.248,0.598,1.705
		s0.793,0.84,1.441,1.148s1.301,0.463,1.957,0.463c0.57,0,1.117-0.121,1.641-0.363s0.961-0.578,1.313-1.008s0.609-0.949,0.773-1.559
		c0.117-0.438,0.176-1.336,0.176-2.695V78.762h1.723v10.406c0,1.539-0.15,2.783-0.451,3.732s-0.902,1.775-1.805,2.479
		s-1.994,1.055-3.275,1.055c-1.391,0-2.582-0.332-3.574-0.996s-1.656-1.543-1.992-2.637c-0.211-0.672-0.316-1.883-0.316-3.633
		V78.762z"/>
	<path fill="#FFFFFF" d="M420.251,92.789l1.465-0.879c1.031,1.898,2.223,2.848,3.574,2.848c0.578,0,1.121-0.135,1.629-0.404
		s0.895-0.631,1.16-1.084s0.398-0.934,0.398-1.441c0-0.578-0.195-1.145-0.586-1.699c-0.539-0.766-1.523-1.688-2.953-2.766
		c-1.438-1.086-2.332-1.871-2.684-2.355c-0.609-0.813-0.914-1.691-0.914-2.637c0-0.75,0.18-1.434,0.539-2.051
		s0.865-1.104,1.518-1.459s1.361-0.533,2.127-0.533c0.813,0,1.572,0.201,2.279,0.604s1.455,1.143,2.244,2.221l-1.406,1.066
		c-0.648-0.859-1.201-1.426-1.658-1.699s-0.955-0.41-1.494-0.41c-0.695,0-1.264,0.211-1.705,0.633s-0.662,0.941-0.662,1.559
		c0,0.375,0.078,0.738,0.234,1.09s0.441,0.734,0.855,1.148c0.227,0.219,0.969,0.793,2.227,1.723c1.492,1.102,2.516,2.082,3.07,2.941
		s0.832,1.723,0.832,2.59c0,1.25-0.475,2.336-1.424,3.258s-2.104,1.383-3.463,1.383c-1.047,0-1.996-0.279-2.848-0.838
		S420.97,94.102,420.251,92.789z"/>
	<path fill="#FFFFFF" d="M436.396,78.762h9.879v1.688h-8.156v5.402h8.086v1.688h-8.086v6.773h8.086V96h-9.809V78.762z"/>
	<path fill="#FFFFFF" d="M451.629,78.762h1.723v7.23h8.777v-7.23h1.723V96h-1.723v-8.32h-8.777V96h-1.723V78.762z"/>
	<path fill="#FFFFFF" d="M478.655,78.328c2.611,0,4.796,0.871,6.555,2.613s2.639,3.887,2.639,6.434c0,2.523-0.878,4.664-2.633,6.422
		s-3.895,2.637-6.42,2.637c-2.557,0-4.714-0.875-6.473-2.625s-2.639-3.867-2.639-6.352c0-1.656,0.4-3.191,1.202-4.605
		c0.801-1.414,1.894-2.521,3.277-3.322S477.045,78.328,478.655,78.328z M478.731,80.004c-1.275,0-2.484,0.332-3.627,0.997
		s-2.035,1.56-2.676,2.686c-0.643,1.126-0.963,2.381-0.963,3.765c0,2.049,0.71,3.778,2.13,5.189
		c1.421,1.412,3.133,2.117,5.136,2.117c1.338,0,2.576-0.324,3.715-0.974c1.139-0.648,2.026-1.536,2.664-2.662
		s0.957-2.377,0.957-3.753c0-1.368-0.319-2.605-0.957-3.712s-1.535-1.991-2.693-2.656S480.03,80.004,478.731,80.004z"/>
	<path fill="#FFFFFF" d="M493.706,78.762h1.723v15.574h6.633V96h-8.355V78.762z"/>
	<path fill="#FFFFFF" d="M507.192,96V78.762h3.574c2.578,0,4.449,0.207,5.613,0.621c1.672,0.586,2.979,1.602,3.92,3.047
		s1.412,3.168,1.412,5.168c0,1.727-0.373,3.246-1.119,4.559s-1.715,2.281-2.906,2.906S514.825,96,512.677,96H507.192z
		 M508.845,94.371h1.992c2.383,0,4.035-0.148,4.957-0.445c1.297-0.421,2.316-1.18,3.059-2.277c0.742-1.096,1.113-2.438,1.113-4.021
		c0-1.662-0.402-3.084-1.207-4.262c-0.805-1.18-1.926-1.986-3.363-2.424c-1.078-0.328-2.855-0.492-5.332-0.492h-1.219V94.371z"/>
	<path fill="#E5A419" d="M536.496,78.762h8.637v1.688h-6.914v5.402h6.914v1.688h-6.914V96h-1.723V78.762z"/>
	<path fill="#E5A419" d="M550.286,78.762h1.723V96h-1.723V78.762z"/>
	<path fill="#E5A419" d="M558.37,96V78.762h0.375l11.473,13.214V78.762h1.699V96h-0.387l-11.379-13.053V96H558.37z"/>
	<path fill="#E5A419" d="M585.556,78.762L593.595,96h-1.86l-2.712-5.672h-7.426L578.911,96h-1.922l8.145-17.238H585.556z
		 M585.338,82.424l-2.954,6.24h5.894L585.338,82.424z"/>
	<path fill="#E5A419" d="M598.678,96V78.762h0.375l11.473,13.214V78.762h1.699V96h-0.387l-11.379-13.053V96H598.678z"/>
	<path fill="#E5A419" d="M634.875,81.961l-1.359,1.043c-0.75-0.977-1.65-1.717-2.701-2.221s-2.205-0.756-3.463-0.756
		c-1.375,0-2.648,0.33-3.82,0.99s-2.08,1.547-2.725,2.66s-0.967,2.365-0.967,3.756c0,2.102,0.721,3.855,2.162,5.262
		s3.26,2.109,5.455,2.109c2.414,0,4.434-0.945,6.059-2.836L634.875,93c-0.859,1.094-1.932,1.939-3.217,2.537
		s-2.721,0.896-4.307,0.896c-3.016,0-5.395-1.004-7.137-3.012c-1.461-1.695-2.191-3.742-2.191-6.141
		c0-2.523,0.885-4.646,2.654-6.369s3.986-2.584,6.65-2.584c1.609,0,3.063,0.318,4.359,0.955S634.047,80.813,634.875,81.961z"/>
	<path fill="#E5A419" d="M640.743,78.762h9.879v1.688h-8.156v5.402h8.086v1.688h-8.086v6.773h8.086V96h-9.809V78.762z"/>
</g>
</svg>
