<?xml version="1.0" encoding="utf-8"?>
<!-- Generator: Adobe Illustrator 16.0.0, SVG Export Plug-In . SVG Version: 6.00 Build 0)  -->
<!DOCTYPE svg PUBLIC "-//W3C//DTD SVG 1.1//EN" "http://www.w3.org/Graphics/SVG/1.1/DTD/svg11.dtd">
<svg version="1.1" id="图层_1" xmlns="http://www.w3.org/2000/svg" xmlns:xlink="http://www.w3.org/1999/xlink" x="0px" y="0px"
	 width="378px" height="67px" viewBox="0 0 378 67" enable-background="new 0 0 378 67" xml:space="preserve">
<g>
	<path fill="#FFFFFF" d="M1.483,56.28v-1.055h5.902v1.055H4.983V66H3.886v-9.72H1.483z"/>
	<path fill="#FFFFFF" d="M9.675,55.226h1.076v4.519h5.486v-4.519h1.076V66h-1.076v-5.201h-5.486V66H9.675V55.226z"/>
	<path fill="#FFFFFF" d="M20.692,55.226h6.174v1.055h-5.098v3.376h5.055v1.055h-5.055v4.234h5.055V66h-6.131V55.226z"/>
	<path fill="#FFFFFF" d="M33.267,63.992l0.916-0.549c0.645,1.187,1.389,1.779,2.234,1.779c0.36,0,0.7-0.084,1.018-0.252
		s0.559-0.395,0.725-0.678s0.25-0.584,0.25-0.9c0-0.361-0.123-0.716-0.367-1.063c-0.336-0.479-0.951-1.055-1.846-1.729
		c-0.898-0.679-1.457-1.17-1.677-1.473c-0.381-0.508-0.571-1.057-0.571-1.647c0-0.469,0.112-0.896,0.337-1.282
		c0.225-0.385,0.541-0.689,0.948-0.912c0.408-0.221,0.851-0.332,1.33-0.332c0.507,0,0.982,0.125,1.424,0.377
		c0.442,0.252,0.909,0.714,1.402,1.388l-0.879,0.667c-0.405-0.537-0.75-0.892-1.036-1.063c-0.285-0.171-0.597-0.256-0.934-0.256
		c-0.435,0-0.79,0.131-1.065,0.395c-0.276,0.264-0.414,0.589-0.414,0.975c0,0.234,0.049,0.461,0.146,0.682
		c0.098,0.219,0.275,0.459,0.535,0.717c0.141,0.137,0.604,0.496,1.391,1.077c0.933,0.688,1.572,1.302,1.92,1.839
		c0.346,0.537,0.52,1.076,0.52,1.618c0,0.781-0.297,1.46-0.89,2.036c-0.594,0.576-1.315,0.864-2.165,0.864
		c-0.654,0-1.247-0.175-1.779-0.524C34.207,65.398,33.716,64.813,33.267,63.992z"/>
	<path fill="#FFFFFF" d="M42.638,55.226h1.076v6.504c0,0.771,0.016,1.253,0.045,1.442c0.053,0.426,0.178,0.781,0.373,1.066
		s0.495,0.525,0.9,0.717c0.405,0.193,0.813,0.29,1.224,0.29c0.356,0,0.698-0.075,1.025-0.228c0.327-0.15,0.601-0.361,0.82-0.629
		c0.22-0.27,0.381-0.594,0.483-0.975c0.073-0.273,0.109-0.835,0.109-1.685v-6.504h1.077v6.504c0,0.962-0.094,1.739-0.282,2.333
		c-0.188,0.594-0.563,1.109-1.128,1.549c-0.563,0.439-1.246,0.659-2.047,0.659c-0.869,0-1.614-0.208-2.233-0.622
		c-0.621-0.416-1.036-0.965-1.246-1.648c-0.131-0.42-0.197-1.177-0.197-2.271V55.226z"/>
	<path fill="#FFFFFF" d="M53.166,55.226h2.146c1.23,0,2.061,0.054,2.49,0.161c0.615,0.151,1.118,0.463,1.51,0.934
		c0.39,0.472,0.586,1.063,0.586,1.776c0,0.718-0.191,1.31-0.572,1.776s-0.905,0.779-1.574,0.941
		c-0.488,0.117-1.401,0.176-2.739,0.176h-0.769V66h-1.077V55.226z M54.243,56.28v3.655l1.823,0.021c0.737,0,1.276-0.066,1.618-0.201
		c0.342-0.134,0.61-0.351,0.807-0.65c0.194-0.3,0.293-0.635,0.293-1.006c0-0.359-0.099-0.689-0.293-0.99
		c-0.196-0.299-0.453-0.512-0.773-0.639c-0.319-0.127-0.844-0.19-1.57-0.19H54.243z"/>
	<path fill="#FFFFFF" d="M62.808,55.226h6.174v1.055h-5.098v3.376h5.055v1.055h-5.055v4.234h5.055V66h-6.131V55.226z"/>
	<path fill="#FFFFFF" d="M71.649,55.226h2.146c1.196,0,2.007,0.049,2.432,0.146c0.64,0.147,1.159,0.461,1.561,0.942
		c0.399,0.482,0.6,1.074,0.6,1.779c0,0.586-0.138,1.102-0.413,1.547c-0.276,0.445-0.671,0.781-1.183,1.008
		c-0.514,0.228-1.222,0.344-2.125,0.349L78.542,66H77.21l-3.875-5.003h-0.608V66h-1.077V55.226z M72.727,56.28v3.662l1.856,0.015
		c0.719,0,1.25-0.068,1.595-0.205s0.614-0.355,0.808-0.655s0.289-0.636,0.289-1.007c0-0.361-0.098-0.689-0.293-0.986
		c-0.195-0.295-0.452-0.506-0.771-0.633c-0.317-0.127-0.846-0.19-1.584-0.19H72.727z"/>
	<path fill="#FFFFFF" d="M81.292,55.226h1.076V66h-1.076V55.226z"/>
	<path fill="#FFFFFF" d="M90.718,54.955c1.632,0,2.998,0.544,4.097,1.633c1.1,1.089,1.649,2.43,1.649,4.021
		c0,1.576-0.549,2.914-1.646,4.014c-1.097,1.098-2.435,1.647-4.013,1.647c-1.598,0-2.946-0.547-4.045-1.641
		c-1.1-1.094-1.649-2.417-1.649-3.97c0-1.035,0.25-1.994,0.751-2.879c0.501-0.883,1.184-1.575,2.049-2.076
		C88.775,55.205,89.711,54.955,90.718,54.955z M90.766,56.002c-0.797,0-1.553,0.207-2.267,0.623
		c-0.715,0.416-1.271,0.975-1.673,1.679s-0.602,1.487-0.602,2.353c0,1.281,0.443,2.361,1.331,3.244
		c0.888,0.882,1.958,1.322,3.21,1.322c0.836,0,1.61-0.202,2.321-0.607c0.712-0.406,1.268-0.961,1.666-1.664
		c0.398-0.704,0.598-1.486,0.598-2.346c0-0.855-0.199-1.629-0.598-2.32s-0.96-1.244-1.684-1.66S91.577,56.002,90.766,56.002z"/>
	<path fill="#FFFFFF" d="M99.433,55.226h2.146c1.196,0,2.007,0.049,2.432,0.146c0.64,0.147,1.159,0.461,1.561,0.942
		c0.399,0.482,0.6,1.074,0.6,1.779c0,0.586-0.138,1.102-0.413,1.547c-0.276,0.445-0.671,0.781-1.183,1.008
		c-0.514,0.228-1.222,0.344-2.125,0.349L106.325,66h-1.332l-3.875-5.003h-0.608V66h-1.077V55.226z M100.51,56.28v3.662l1.856,0.015
		c0.719,0,1.25-0.068,1.595-0.205s0.614-0.355,0.808-0.655s0.289-0.636,0.289-1.007c0-0.361-0.098-0.689-0.293-0.986
		c-0.195-0.295-0.452-0.506-0.771-0.633c-0.317-0.127-0.846-0.19-1.584-0.19H100.51z"/>
	<path fill="#FFFFFF" d="M118.532,55.226L123.557,66h-1.163l-1.694-3.545h-4.642L114.38,66h-1.201l5.09-10.774H118.532z
		 M118.396,57.515l-1.847,3.899h3.684L118.396,57.515z"/>
	<path fill="#FFFFFF" d="M136.011,57.225l-0.85,0.652c-0.469-0.61-1.031-1.072-1.688-1.389c-0.657-0.314-1.379-0.472-2.164-0.472
		c-0.86,0-1.656,0.206-2.389,0.618c-0.732,0.414-1.3,0.967-1.702,1.664c-0.403,0.695-0.604,1.478-0.604,2.347
		c0,1.313,0.45,2.409,1.352,3.288c0.9,0.879,2.037,1.318,3.409,1.318c1.509,0,2.771-0.59,3.786-1.771l0.85,0.645
		c-0.537,0.684-1.207,1.211-2.01,1.586c-0.804,0.373-1.701,0.56-2.691,0.56c-1.886,0-3.372-0.628-4.461-1.882
		c-0.913-1.061-1.369-2.34-1.369-3.838c0-1.578,0.553-2.904,1.658-3.98c1.106-1.078,2.491-1.615,4.156-1.615
		c1.006,0,1.914,0.199,2.725,0.596C134.829,55.949,135.493,56.508,136.011,57.225z"/>
	<path fill="#FFFFFF" d="M148.956,57.225l-0.85,0.652c-0.469-0.61-1.032-1.072-1.688-1.389c-0.657-0.314-1.379-0.472-2.165-0.472
		c-0.859,0-1.654,0.206-2.387,0.618c-0.732,0.414-1.301,0.967-1.703,1.664c-0.403,0.695-0.604,1.478-0.604,2.347
		c0,1.313,0.45,2.409,1.352,3.288c0.9,0.879,2.037,1.318,3.409,1.318c1.509,0,2.771-0.59,3.787-1.771l0.85,0.645
		c-0.538,0.684-1.208,1.211-2.011,1.586c-0.804,0.373-1.701,0.56-2.692,0.56c-1.885,0-3.371-0.628-4.46-1.882
		c-0.913-1.061-1.37-2.34-1.37-3.838c0-1.578,0.554-2.904,1.659-3.98c1.106-1.078,2.491-1.615,4.157-1.615
		c1.005,0,1.913,0.199,2.725,0.596C147.773,55.949,148.438,56.508,148.956,57.225z"/>
	<path fill="#FFFFFF" d="M151.874,55.226h6.174v1.055h-5.098v3.376h5.055v1.055h-5.055v4.234h5.055V66h-6.131V55.226z"/>
	<path fill="#FFFFFF" d="M159.546,63.992l0.915-0.549c0.645,1.187,1.389,1.779,2.233,1.779c0.361,0,0.701-0.084,1.019-0.252
		s0.559-0.395,0.726-0.678c0.165-0.283,0.248-0.584,0.248-0.9c0-0.361-0.122-0.716-0.365-1.063
		c-0.338-0.479-0.953-1.055-1.846-1.729c-0.899-0.679-1.458-1.17-1.678-1.473c-0.381-0.508-0.571-1.057-0.571-1.647
		c0-0.469,0.112-0.896,0.337-1.282c0.225-0.385,0.541-0.689,0.948-0.912c0.408-0.221,0.851-0.332,1.329-0.332
		c0.508,0,0.983,0.125,1.425,0.377c0.442,0.252,0.909,0.714,1.403,1.388l-0.879,0.667c-0.406-0.537-0.751-0.892-1.037-1.063
		c-0.285-0.171-0.597-0.256-0.934-0.256c-0.435,0-0.79,0.131-1.065,0.395c-0.276,0.264-0.414,0.589-0.414,0.975
		c0,0.234,0.049,0.461,0.146,0.682c0.098,0.219,0.275,0.459,0.534,0.717c0.142,0.137,0.605,0.496,1.393,1.077
		c0.932,0.688,1.571,1.302,1.918,1.839s0.521,1.076,0.521,1.618c0,0.781-0.297,1.46-0.89,2.036
		c-0.594,0.576-1.314,0.864-2.164,0.864c-0.655,0-1.248-0.175-1.78-0.524C160.485,65.398,159.994,64.813,159.546,63.992z"/>
	<path fill="#FFFFFF" d="M167.767,63.992l0.915-0.549c0.645,1.187,1.389,1.779,2.233,1.779c0.361,0,0.701-0.084,1.019-0.252
		s0.559-0.395,0.726-0.678c0.165-0.283,0.248-0.584,0.248-0.9c0-0.361-0.122-0.716-0.365-1.063
		c-0.338-0.479-0.953-1.055-1.846-1.729c-0.899-0.679-1.458-1.17-1.678-1.473c-0.381-0.508-0.571-1.057-0.571-1.647
		c0-0.469,0.112-0.896,0.337-1.282c0.225-0.385,0.541-0.689,0.948-0.912c0.408-0.221,0.851-0.332,1.329-0.332
		c0.508,0,0.983,0.125,1.425,0.377c0.442,0.252,0.909,0.714,1.403,1.388l-0.879,0.667c-0.406-0.537-0.751-0.892-1.037-1.063
		c-0.285-0.171-0.597-0.256-0.934-0.256c-0.435,0-0.79,0.131-1.065,0.395c-0.276,0.264-0.414,0.589-0.414,0.975
		c0,0.234,0.049,0.461,0.146,0.682c0.098,0.219,0.275,0.459,0.534,0.717c0.142,0.137,0.605,0.496,1.393,1.077
		c0.932,0.688,1.571,1.302,1.918,1.839s0.521,1.076,0.521,1.618c0,0.781-0.297,1.46-0.89,2.036
		c-0.594,0.576-1.314,0.864-2.164,0.864c-0.655,0-1.248-0.175-1.78-0.524C168.706,65.398,168.215,64.813,167.767,63.992z"/>
	<path fill="#FFFFFF" d="M180.935,56.28v-1.055h5.902v1.055h-2.402V66h-1.098v-9.72H180.935z"/>
	<path fill="#FFFFFF" d="M194.271,54.955c1.632,0,2.998,0.544,4.097,1.633c1.1,1.089,1.649,2.43,1.649,4.021
		c0,1.576-0.549,2.914-1.646,4.014c-1.097,1.098-2.435,1.647-4.013,1.647c-1.598,0-2.946-0.547-4.045-1.641
		c-1.1-1.094-1.649-2.417-1.649-3.97c0-1.035,0.25-1.994,0.751-2.879c0.501-0.883,1.184-1.575,2.049-2.076
		C192.328,55.205,193.264,54.955,194.271,54.955z M194.318,56.002c-0.797,0-1.553,0.207-2.267,0.623
		c-0.715,0.416-1.271,0.975-1.673,1.679s-0.602,1.487-0.602,2.353c0,1.281,0.443,2.361,1.331,3.244
		c0.888,0.882,1.958,1.322,3.21,1.322c0.836,0,1.61-0.202,2.321-0.607c0.712-0.406,1.268-0.961,1.666-1.664
		c0.398-0.704,0.598-1.486,0.598-2.346c0-0.855-0.199-1.629-0.598-2.32s-0.96-1.244-1.684-1.66S195.13,56.002,194.318,56.002z"/>
	<path fill="#FFFFFF" d="M207.815,55.226h1.076v4.519h5.486v-4.519h1.076V66h-1.076v-5.201h-5.486V66h-1.076V55.226z"/>
	<path fill="#FFFFFF" d="M223.956,54.955c1.632,0,2.998,0.544,4.097,1.633c1.1,1.089,1.649,2.43,1.649,4.021
		c0,1.576-0.549,2.914-1.646,4.014c-1.097,1.098-2.435,1.647-4.013,1.647c-1.598,0-2.946-0.547-4.045-1.641
		c-1.1-1.094-1.649-2.417-1.649-3.97c0-1.035,0.25-1.994,0.751-2.879c0.501-0.883,1.184-1.575,2.049-2.076
		C222.014,55.205,222.949,54.955,223.956,54.955z M224.004,56.002c-0.797,0-1.553,0.207-2.267,0.623
		c-0.715,0.416-1.271,0.975-1.673,1.679s-0.602,1.487-0.602,2.353c0,1.281,0.443,2.361,1.331,3.244
		c0.888,0.882,1.958,1.322,3.21,1.322c0.836,0,1.61-0.202,2.321-0.607c0.712-0.406,1.268-0.961,1.666-1.664
		c0.398-0.704,0.598-1.486,0.598-2.346c0-0.855-0.199-1.629-0.598-2.32s-0.96-1.244-1.684-1.66S224.815,56.002,224.004,56.002z"/>
	<path fill="#FFFFFF" d="M232.649,55.226h1.076v6.504c0,0.771,0.016,1.253,0.045,1.442c0.053,0.426,0.178,0.781,0.373,1.066
		s0.495,0.525,0.9,0.717c0.405,0.193,0.813,0.29,1.224,0.29c0.356,0,0.698-0.075,1.025-0.228c0.327-0.15,0.601-0.361,0.82-0.629
		c0.22-0.27,0.381-0.594,0.483-0.975c0.073-0.273,0.109-0.835,0.109-1.685v-6.504h1.077v6.504c0,0.962-0.094,1.739-0.282,2.333
		c-0.188,0.594-0.563,1.109-1.128,1.549c-0.563,0.439-1.246,0.659-2.047,0.659c-0.869,0-1.614-0.208-2.233-0.622
		c-0.621-0.416-1.036-0.965-1.246-1.648c-0.131-0.42-0.197-1.177-0.197-2.271V55.226z"/>
	<path fill="#FFFFFF" d="M242.071,63.992l0.916-0.549c0.645,1.187,1.389,1.779,2.234,1.779c0.36,0,0.7-0.084,1.018-0.252
		s0.559-0.395,0.725-0.678s0.25-0.584,0.25-0.9c0-0.361-0.123-0.716-0.367-1.063c-0.336-0.479-0.951-1.055-1.846-1.729
		c-0.898-0.679-1.457-1.17-1.677-1.473c-0.381-0.508-0.571-1.057-0.571-1.647c0-0.469,0.112-0.896,0.337-1.282
		c0.225-0.385,0.541-0.689,0.948-0.912c0.408-0.221,0.851-0.332,1.33-0.332c0.507,0,0.982,0.125,1.424,0.377
		c0.442,0.252,0.909,0.714,1.402,1.388l-0.879,0.667c-0.405-0.537-0.75-0.892-1.036-1.063c-0.285-0.171-0.597-0.256-0.934-0.256
		c-0.435,0-0.79,0.131-1.065,0.395c-0.276,0.264-0.414,0.589-0.414,0.975c0,0.234,0.049,0.461,0.146,0.682
		c0.098,0.219,0.275,0.459,0.535,0.717c0.141,0.137,0.604,0.496,1.391,1.077c0.933,0.688,1.572,1.302,1.92,1.839
		c0.346,0.537,0.52,1.076,0.52,1.618c0,0.781-0.297,1.46-0.89,2.036c-0.594,0.576-1.315,0.864-2.165,0.864
		c-0.654,0-1.247-0.175-1.779-0.524C243.012,65.398,242.521,64.813,242.071,63.992z"/>
	<path fill="#FFFFFF" d="M251.413,55.226h6.174v1.055h-5.098v3.376h5.055v1.055h-5.055v4.234h5.055V66h-6.131V55.226z"/>
	<path fill="#FFFFFF" d="M260.183,55.226h1.077v4.519h5.485v-4.519h1.077V66h-1.077v-5.201h-5.485V66h-1.077V55.226z"/>
	<path fill="#FFFFFF" d="M276.325,54.955c1.632,0,2.998,0.544,4.097,1.633c1.1,1.089,1.649,2.43,1.649,4.021
		c0,1.576-0.549,2.914-1.646,4.014c-1.097,1.098-2.435,1.647-4.013,1.647c-1.598,0-2.946-0.547-4.045-1.641
		c-1.1-1.094-1.649-2.417-1.649-3.97c0-1.035,0.25-1.994,0.751-2.879c0.501-0.883,1.184-1.575,2.049-2.076
		C274.383,55.205,275.318,54.955,276.325,54.955z M276.373,56.002c-0.797,0-1.553,0.207-2.267,0.623
		c-0.715,0.416-1.271,0.975-1.673,1.679s-0.602,1.487-0.602,2.353c0,1.281,0.443,2.361,1.331,3.244
		c0.888,0.882,1.958,1.322,3.21,1.322c0.836,0,1.61-0.202,2.321-0.607c0.712-0.406,1.268-0.961,1.666-1.664
		c0.398-0.704,0.598-1.486,0.598-2.346c0-0.855-0.199-1.629-0.598-2.32s-0.96-1.244-1.684-1.66S277.185,56.002,276.373,56.002z"/>
	<path fill="#FFFFFF" d="M284.981,55.226h1.077v9.733h4.146V66h-5.223V55.226z"/>
	<path fill="#FFFFFF" d="M292.659,66V55.226h2.234c1.611,0,2.78,0.13,3.508,0.388c1.045,0.367,1.862,1.002,2.45,1.904
		c0.589,0.904,0.883,1.98,0.883,3.23c0,1.079-0.233,2.029-0.699,2.85c-0.467,0.82-1.072,1.426-1.816,1.816
		C298.474,65.805,297.43,66,296.087,66H292.659z M293.692,64.981h1.245c1.489,0,2.521-0.093,3.099-0.278
		c0.81-0.264,1.447-0.738,1.911-1.423c0.464-0.686,0.696-1.523,0.696-2.515c0-1.039-0.252-1.926-0.755-2.663
		s-1.204-1.241-2.103-1.515c-0.674-0.205-1.784-0.308-3.332-0.308h-0.762V64.981z"/>
	<path fill="#E5A419" d="M309.476,55.226h5.397v1.055h-4.321v3.376h4.321v1.055h-4.321V66h-1.076V55.226z"/>
	<path fill="#E5A419" d="M317.344,55.226h1.077V66h-1.077V55.226z"/>
	<path fill="#E5A419" d="M321.646,66V55.226h0.234l7.171,8.259v-8.259h1.062V66h-0.241l-7.112-8.158V66H321.646z"/>
	<path fill="#E5A419" d="M337.888,55.226L342.912,66h-1.163l-1.694-3.545h-4.642L333.735,66h-1.201l5.09-10.774H337.888z
		 M337.752,57.515l-1.847,3.899h3.684L337.752,57.515z"/>
	<path fill="#E5A419" d="M345.339,66V55.226h0.234l7.17,8.259v-8.259h1.063V66h-0.242l-7.111-8.158V66H345.339z"/>
	<path fill="#E5A419" d="M367.212,57.225l-0.85,0.652c-0.469-0.61-1.032-1.072-1.688-1.389c-0.657-0.314-1.379-0.472-2.165-0.472
		c-0.859,0-1.654,0.206-2.387,0.618c-0.732,0.414-1.301,0.967-1.703,1.664c-0.403,0.695-0.604,1.478-0.604,2.347
		c0,1.313,0.45,2.409,1.352,3.288c0.9,0.879,2.037,1.318,3.409,1.318c1.509,0,2.771-0.59,3.787-1.771l0.85,0.645
		c-0.538,0.684-1.208,1.211-2.011,1.586c-0.804,0.373-1.701,0.56-2.692,0.56c-1.885,0-3.371-0.628-4.46-1.882
		c-0.913-1.061-1.37-2.34-1.37-3.838c0-1.578,0.554-2.904,1.659-3.98c1.106-1.078,2.491-1.615,4.157-1.615
		c1.005,0,1.913,0.199,2.725,0.596C366.029,55.949,366.693,56.508,367.212,57.225z"/>
	<path fill="#E5A419" d="M370.13,55.226h6.174v1.055h-5.098v3.376h5.055v1.055h-5.055v4.234h5.055V66h-6.131V55.226z"/>
</g>
<g>
	<path fill="#FFFFFF" d="M65.158,13.287c-1.6,1.376-3.744,2.912-5.76,4.256c1.696,4.8,5.28,8.832,9.664,10.495
		c-0.224,0.192-0.512,0.512-0.64,0.768c-4.352-1.824-7.967-5.888-9.759-10.751c-0.736,0.448-1.44,0.896-2.08,1.28
		c1.248,4.383,0.448,8.703-1.408,9.919c-0.896,0.607-1.568,0.768-2.816,0.768c-0.672,0-1.792-0.032-2.848-0.096
		c0-0.256-0.128-0.641-0.256-0.896c1.152,0.097,2.336,0.16,2.912,0.16c0.96,0,1.632-0.063,2.368-0.544
		c1.439-0.896,2.208-4.16,1.472-7.807c-3.52,3.04-9.439,6.111-14.431,7.551c-0.096-0.256-0.352-0.64-0.544-0.864
		c5.152-1.28,11.551-4.544,14.751-7.616c-0.288-1.12-0.672-2.24-1.28-3.328c-3.072,2.304-8.288,4.8-12.287,6.08
		c-0.096-0.256-0.352-0.64-0.544-0.864c4.032-1.088,9.567-3.68,12.415-5.952c-0.576-0.96-1.312-1.92-2.176-2.752
		c-3.008,1.76-6.56,3.2-9.695,4.224c-0.096-0.192-0.416-0.64-0.64-0.8c4.256-1.28,9.151-3.296,12.319-5.792h-8.832V9.799h19.071
		v0.928h-8.927c-0.768,0.672-1.632,1.312-2.624,1.92c1.824,1.728,3.008,3.839,3.744,5.951c2.656-1.632,6.048-4.096,8.032-5.887
		L65.158,13.287z M42.664,10.375h-0.928V4.456h12.575c-0.448-0.928-1.056-2.112-1.696-2.976l0.896-0.288
		c0.672,0.992,1.472,2.368,1.855,3.264h12.319v5.919h-0.928V5.384H42.664V10.375z"/>
	<path fill="#FFFFFF" d="M77.096,5.352v8.767c0,4.672-0.288,11.263-2.496,15.999c-0.16-0.191-0.576-0.447-0.8-0.575
		c2.144-4.608,2.368-10.879,2.368-15.423V4.424h13.503c-0.288-0.928-0.832-2.144-1.376-3.072l0.832-0.224
		c0.672,1.024,1.248,2.336,1.504,3.296h11.679v0.928H77.096z M102.598,28.518c-0.192,0.288-0.352,0.672-0.416,0.896h-7.744
		c-5.056,0-8.831-0.704-11.551-3.36c-1.408,1.728-3.104,2.944-4.991,3.872c-0.096-0.225-0.416-0.544-0.64-0.704
		c1.92-0.864,3.616-2.112,5.023-3.84c-1.248-1.44-2.208-3.296-2.944-5.792l0.768-0.352c0.672,2.304,1.568,4.096,2.72,5.408
		c1.408-2.016,2.464-4.576,3.04-7.839h-5.408v-0.032h-0.8c1.408-1.888,3.264-4.832,4.704-7.231h-5.855V8.616h7.487
		c-1.44,2.304-3.264,5.184-4.672,7.263h4.896l0.192-0.032l0.544,0.192c-0.672,3.968-1.856,7.007-3.488,9.279
		c2.592,2.528,6.271,3.2,10.975,3.2H102.598z M94.311,23.398v-6.879h-5.439v-0.928h5.439v-5.44c-1.888,0.32-3.872,0.608-5.6,0.8
		c-0.064-0.256-0.224-0.608-0.352-0.832c3.84-0.48,8.799-1.248,11.263-2.336l0.64,0.832c-1.28,0.512-3.072,0.992-5.024,1.376v5.6
		h5.376v0.928h-5.376v6.879h6.432v0.928H87.815v-0.928H94.311z"/>
	<path fill="#FFFFFF" d="M123.015,1.448c-0.192,0.352-0.416,0.672-0.672,0.992c3.167,3.936,9.247,8.032,14.175,9.759
		c-0.256,0.224-0.544,0.576-0.736,0.832c-4.736-1.856-10.655-5.855-14.015-9.887c-3.36,4.191-8.607,7.903-13.951,9.919
		c-0.192-0.224-0.448-0.64-0.704-0.832c5.983-2.112,11.999-6.432,15.071-11.199L123.015,1.448z M122.183,28.006h13.407v0.928
		h-27.518v-0.928h13.183v-9.536h-11.839v-0.928h11.839v-5.408h-7.36v-0.928h15.935v0.928h-7.647v5.408h12.191v0.928h-12.191V28.006z
		 M113.576,20.167c1.312,1.952,2.656,4.576,3.2,6.208l-0.896,0.352c-0.512-1.632-1.824-4.288-3.167-6.271L113.576,20.167z
		 M126.087,26.406c1.28-1.664,2.944-4.448,3.84-6.335l0.896,0.448c-1.152,2.08-2.72,4.64-4,6.304L126.087,26.406z"/>
	<path fill="#FFFFFF" d="M141.512,2.888h14.271v0.928h-14.271V2.888z M155.495,28.455c0,0.672-0.16,0.991-0.704,1.184
		c-0.544,0.16-1.6,0.16-3.36,0.16c-0.064-0.256-0.224-0.608-0.384-0.896c1.504,0.032,2.688,0.032,3.04,0.032
		c0.384-0.032,0.48-0.128,0.48-0.479V15.783h-11.679V29.99h-0.928V14.855h13.535V28.455z M154.215,6.344v6.047H143.08V6.344H154.215
		z M153.287,7.271h-9.279v4.192h9.279V7.271z M149.287,22.343v7.072h-0.928v-7.072h-4.32v-0.928h5.184
		c0.896-1.376,1.984-3.488,2.592-4.896l0.864,0.416c-0.736,1.472-1.664,3.2-2.496,4.479h3.072v0.928H149.287z M145.799,16.647
		c0.896,1.312,1.792,3.072,2.144,4.16l-0.8,0.352c-0.352-1.12-1.28-2.912-2.144-4.256L145.799,16.647z M169.094,30.15
		c-0.128-0.768-0.352-1.728-0.672-2.72c-4.032,0.736-8.16,1.439-11.199,1.952l-0.384-0.992c1.6-0.256,3.616-0.576,5.855-0.928
		v-8.512h-5.216V7.912h5.216V1.256h0.928v6.655h4.96v11.039h-4.96v8.352l4.512-0.768c-0.576-1.664-1.312-3.456-2.112-4.959
		l0.896-0.256c1.504,2.72,2.784,6.271,3.104,8.447L169.094,30.15z M158.407,18.023h4.288V8.839h-4.288V18.023z M167.654,8.839
		h-4.032v9.184h4.032V8.839z"/>
	<path fill="#FFFFFF" d="M182.439,1.48c-0.544,1.6-1.184,3.52-1.76,4.896h5.728v20.286h-9.279v2.752H176.2V6.376h3.52
		c0.608-1.44,1.375-3.712,1.696-5.216L182.439,1.48z M185.479,7.304h-8.351v8.319h8.351V7.304z M185.479,25.734v-9.184h-8.351v9.184
		H185.479z M202.182,7.144c-0.544,15.007-1.056,19.839-2.304,21.279c-0.544,0.64-1.12,0.832-2.048,0.863
		c-0.96,0.032-2.783-0.031-4.512-0.159c-0.063-0.32-0.128-0.704-0.319-0.96c2.111,0.16,4.031,0.192,4.703,0.192
		c0.64,0,1.024-0.064,1.312-0.479c1.088-1.152,1.664-6.176,2.208-20.511h-9.599c-0.896,2.4-1.952,4.512-3.168,6.208
		c-0.16-0.128-0.608-0.384-0.864-0.48c2.271-3.008,3.936-7.456,4.928-12.095l0.96,0.192c-0.416,1.824-0.928,3.584-1.504,5.248
		h10.207V7.144z M196.519,21.287c-1.057-1.952-3.36-5.184-5.376-7.487l0.768-0.448c2.017,2.336,4.353,5.472,5.408,7.392
		L196.519,21.287z"/>
	<path fill="#FFFFFF" d="M237.317,28.326c-0.192,0.256-0.416,0.672-0.479,0.928h-12.256c-7.936,0-11.551-1.44-13.663-6.752
		c-0.352,3.072-1.023,5.664-2.271,7.712c-0.16-0.16-0.544-0.48-0.768-0.641c2.016-3.231,2.367-8.159,2.495-14.015l0.992,0.064
		c-0.063,1.664-0.128,3.232-0.224,4.704c0.8,2.88,1.983,4.768,3.743,5.983V12.583h-6.367v-0.928h6.111V6.664h-5.535V5.736h5.535
		V1.256h0.928v4.479h5.536v0.928h-5.536v4.992h6.271v0.928h-6.016v5.664h5.792v0.928h-5.792v7.711c2.08,1.056,4.864,1.44,8.672,1.44
		H237.317z M228.582,3.72c-0.48,5.6-2.592,8.832-6.592,10.943c-0.128-0.192-0.512-0.576-0.735-0.768
		c3.936-1.824,5.888-4.959,6.335-10.175h-5.439V2.792h13.919c0,0,0,0.416-0.032,0.608c-0.352,6.176-0.64,8.352-1.344,9.087
		C234.31,12.839,233.926,13,233.126,13c-0.641,0.032-2.08,0-3.488-0.096c-0.032-0.288-0.128-0.64-0.256-0.928
		c1.568,0.16,3.072,0.16,3.52,0.16c0.513,0.032,0.832,0,1.024-0.256c0.512-0.576,0.864-2.592,1.184-8.16H228.582z M223.431,15.239
		h11.967v9.727h-11.967V15.239z M224.358,24.039h10.111v-7.872h-10.111V24.039z"/>
	<path fill="#FFFFFF" d="M252.231,17.319c0.032,0.224,0.096,0.608,0.16,0.832c-8.8,2.72-9.695,3.04-10.239,3.456
		c-0.032-0.256-0.192-0.768-0.32-1.024c0.544-0.096,1.376-0.992,2.336-2.176c0.704-0.768,2.464-2.912,4.224-5.536
		c-5.279,0.8-6.016,0.928-6.399,1.152c-0.064-0.256-0.224-0.768-0.353-1.023c0.48-0.096,1.057-0.96,1.824-2.08
		c0.736-1.12,3.359-5.472,4.928-9.503l0.928,0.448c-1.728,3.872-3.808,7.807-5.919,10.751l5.663-0.736
		c0.8-1.152,1.568-2.4,2.24-3.616l0.928,0.448c-2.432,4-5.216,7.904-7.936,10.943L252.231,17.319z M252.775,23.814
		c-3.904,1.344-7.936,2.752-10.848,3.744l-0.256-0.928c2.72-0.896,6.848-2.336,10.943-3.744L252.775,23.814z M269.094,12.967
		c-1.023,4.448-2.815,7.936-5.119,10.751c1.952,2.432,4.191,4.384,6.72,5.6c-0.256,0.192-0.576,0.544-0.769,0.8
		c-2.464-1.279-4.672-3.231-6.56-5.663c-2.336,2.56-5.056,4.415-7.999,5.728c-0.128-0.224-0.48-0.608-0.704-0.768
		c3.008-1.249,5.792-3.136,8.096-5.728c-2.24-3.072-4-6.815-5.312-10.783c-0.704,7.199-2.08,12.831-5.344,17.214
		c-0.192-0.159-0.608-0.447-0.832-0.607c4.447-5.568,5.376-14.175,5.728-25.118h-4.032V3.464h13.344
		c-0.864,2.88-1.952,6.688-2.848,9.248h4.799l0.225-0.064L269.094,12.967z M257.991,4.392c-0.097,2.208-0.225,4.255-0.353,6.208
		c1.248,4.512,3.2,8.831,5.76,12.319c1.984-2.464,3.552-5.536,4.512-9.279h-5.76c0.896-2.336,2.048-6.208,2.88-9.247H257.991z"/>
	<path fill="#FFFFFF" d="M284.583,2.472c10.239,7.167,8.607,20.094,19.614,26.302c-0.224,0.256-0.447,0.641-0.512,0.96
		c-8.159-4.576-9.663-12.863-13.695-19.742c-2.367,9.535-6.495,15.903-13.727,20.063c-0.16-0.192-0.576-0.576-0.864-0.769
		c7.552-4.031,11.647-10.783,13.823-20.478c-1.344-2.08-3.008-4-5.216-5.568L284.583,2.472z"/>
	<path fill="#FFFFFF" d="M334.822,4.84v24.062h-0.928v-2.624h-20.83v2.879h-0.929V4.84H334.822z M333.895,25.351V5.768h-20.83
		v19.583H333.895z"/>
</g>
</svg>
