<?xml version="1.0" encoding="utf-8"?>
<!-- Generator: Adobe Illustrator 16.0.0, SVG Export Plug-In . SVG Version: 6.00 Build 0)  -->
<!DOCTYPE svg PUBLIC "-//W3C//DTD SVG 1.1//EN" "http://www.w3.org/Graphics/SVG/1.1/DTD/svg11.dtd">
<svg version="1.1" id="图层_1" xmlns="http://www.w3.org/2000/svg" xmlns:xlink="http://www.w3.org/1999/xlink" x="0px" y="0px"
	 width="251px" height="90px" viewBox="0 0 251 90" enable-background="new 0 0 251 90" xml:space="preserve">
<g>
	<path fill="#FFFFFF" d="M22.004,11.718c-1.35,1.161-3.158,2.457-4.858,3.59c1.431,4.049,4.454,7.45,8.152,8.854
		c-0.189,0.162-0.432,0.432-0.54,0.647c-3.671-1.539-6.721-4.966-8.233-9.069c-0.621,0.378-1.214,0.756-1.754,1.08
		c1.053,3.698,0.378,7.342-1.188,8.368c-0.756,0.513-1.323,0.648-2.375,0.648c-0.567,0-1.512-0.027-2.402-0.081
		c0-0.216-0.108-0.54-0.216-0.756c0.972,0.081,1.97,0.135,2.456,0.135c0.81,0,1.377-0.054,1.998-0.459
		c1.215-0.756,1.862-3.509,1.242-6.586c-2.969,2.564-7.963,5.156-12.174,6.371c-0.081-0.216-0.297-0.54-0.459-0.729
		c4.346-1.08,9.745-3.833,12.444-6.424c-0.243-0.945-0.567-1.889-1.08-2.807c-2.591,1.943-6.991,4.049-10.365,5.128
		c-0.081-0.216-0.297-0.54-0.459-0.729c3.401-0.918,8.071-3.104,10.473-5.021c-0.486-0.81-1.106-1.62-1.835-2.322
		c-2.537,1.485-5.534,2.699-8.179,3.563c-0.081-0.162-0.351-0.54-0.54-0.675c3.59-1.08,7.72-2.78,10.392-4.885h-7.45V8.776H21.14
		v0.783h-7.531c-0.648,0.566-1.376,1.106-2.213,1.619c1.539,1.458,2.537,3.239,3.158,5.021c2.24-1.377,5.102-3.455,6.775-4.967
		L22.004,11.718z M3.028,9.262H2.246V4.268h10.608c-0.378-0.783-0.891-1.781-1.431-2.51l0.756-0.243
		c0.567,0.836,1.242,1.998,1.565,2.753h10.393v4.994h-0.783v-4.21H3.028V9.262z"/>
	<path fill="#FFFFFF" d="M32.08,5.024v7.396c0,3.941-0.243,9.501-2.105,13.496c-0.135-0.161-0.486-0.377-0.675-0.485
		c1.809-3.887,1.998-9.178,1.998-13.011V4.241h11.391c-0.243-0.783-0.702-1.809-1.161-2.591l0.702-0.189
		c0.567,0.864,1.053,1.971,1.269,2.78h9.853v0.783H32.08z M53.593,24.566c-0.162,0.243-0.297,0.567-0.351,0.756H46.71
		c-4.265,0-7.45-0.594-9.744-2.834c-1.188,1.458-2.618,2.483-4.211,3.267c-0.081-0.189-0.351-0.459-0.54-0.594
		c1.62-0.729,3.05-1.782,4.238-3.24c-1.053-1.214-1.863-2.78-2.483-4.886l0.647-0.297c0.567,1.944,1.323,3.455,2.294,4.562
		c1.188-1.701,2.079-3.86,2.564-6.613h-4.562v-0.027H34.24c1.188-1.593,2.753-4.076,3.968-6.101h-4.94V7.777h6.316
		c-1.214,1.943-2.753,4.373-3.941,6.127h4.13l0.162-0.027l0.459,0.162c-0.567,3.347-1.566,5.912-2.942,7.828
		c2.187,2.132,5.291,2.699,9.258,2.699H53.593z M46.602,20.248v-5.804h-4.588v-0.783h4.588V9.073
		c-1.592,0.27-3.266,0.513-4.724,0.675c-0.054-0.216-0.189-0.513-0.297-0.702c3.239-0.405,7.423-1.053,9.501-1.97l0.54,0.702
		c-1.08,0.432-2.591,0.837-4.238,1.161v4.724h4.535v0.783h-4.535v5.804h5.426v0.783H41.123v-0.783H46.602z"/>
	<path fill="#FFFFFF" d="M70.822,1.731c-0.162,0.297-0.351,0.567-0.567,0.837c2.672,3.32,7.801,6.775,11.958,8.232
		c-0.216,0.189-0.459,0.486-0.621,0.702c-3.995-1.566-8.989-4.94-11.823-8.341c-2.834,3.536-7.261,6.667-11.769,8.368
		c-0.162-0.189-0.378-0.54-0.594-0.702c5.047-1.782,10.122-5.426,12.713-9.448L70.822,1.731z M70.121,24.135h11.31v0.783H58.217
		v-0.783h11.121v-8.043h-9.987v-0.783h9.987v-4.562h-6.208V9.964h13.442v0.783h-6.451v4.562h10.284v0.783H70.121V24.135z
		 M62.859,17.521c1.107,1.647,2.241,3.86,2.699,5.237l-0.755,0.297c-0.432-1.376-1.539-3.617-2.672-5.291L62.859,17.521z
		 M73.414,22.785c1.08-1.403,2.483-3.752,3.239-5.344l0.756,0.378c-0.972,1.754-2.294,3.914-3.374,5.317L73.414,22.785z"/>
	<path fill="#FFFFFF" d="M86.432,2.946H98.47v0.783H86.432V2.946z M98.227,24.513c0,0.567-0.135,0.837-0.594,0.999
		c-0.458,0.135-1.35,0.135-2.834,0.135c-0.054-0.216-0.189-0.513-0.324-0.756c1.269,0.027,2.268,0.027,2.564,0.027
		c0.324-0.027,0.405-0.108,0.405-0.405V13.824h-9.852v11.985H86.81V13.041h11.417V24.513z M97.147,5.861v5.102h-9.394V5.861H97.147z
		 M96.365,6.644h-7.828v3.536h7.828V6.644z M92.991,19.357v5.965h-0.783v-5.965h-3.644v-0.783h4.373
		c0.756-1.161,1.674-2.942,2.187-4.13l0.729,0.351c-0.621,1.242-1.404,2.699-2.105,3.779h2.591v0.783H92.991z M90.048,14.553
		c0.756,1.106,1.512,2.591,1.809,3.509l-0.675,0.297c-0.297-0.945-1.08-2.456-1.809-3.59L90.048,14.553z M109.699,25.943
		c-0.108-0.647-0.297-1.457-0.567-2.294c-3.401,0.621-6.883,1.214-9.447,1.647l-0.324-0.837c1.35-0.216,3.05-0.486,4.94-0.783v-7.18
		h-4.4V7.184h4.4V1.569h0.783v5.615h4.184v9.313h-4.184v7.045l3.806-0.648c-0.486-1.403-1.107-2.915-1.782-4.184l0.756-0.216
		c1.269,2.294,2.348,5.291,2.618,7.125L109.699,25.943z M100.684,15.713h3.617V7.966h-3.617V15.713z M108.484,7.966h-3.401v7.747
		h3.401V7.966z"/>
	<path fill="#FFFFFF" d="M120.963,1.758c-0.459,1.35-0.999,2.969-1.484,4.13h4.832v17.114h-7.828v2.321h-0.783V5.888h2.969
		c0.513-1.214,1.161-3.131,1.431-4.4L120.963,1.758z M123.527,6.67h-7.045v7.019h7.045V6.67z M123.527,22.218v-7.747h-7.045v7.747
		H123.527z M137.617,6.536c-0.459,12.66-0.891,16.735-1.943,17.951c-0.459,0.539-0.944,0.701-1.728,0.729
		c-0.81,0.026-2.349-0.027-3.806-0.135c-0.054-0.271-0.108-0.594-0.271-0.811c1.782,0.136,3.401,0.162,3.969,0.162
		c0.539,0,0.863-0.054,1.106-0.404c0.918-0.972,1.403-5.21,1.862-17.303h-8.098c-0.756,2.024-1.646,3.806-2.673,5.237
		c-0.135-0.108-0.513-0.324-0.729-0.405c1.917-2.537,3.32-6.289,4.157-10.203l0.81,0.162c-0.351,1.539-0.783,3.023-1.269,4.427h8.61
		V6.536z M132.84,18.466c-0.891-1.646-2.834-4.373-4.535-6.316l0.648-0.378c1.7,1.97,3.671,4.616,4.562,6.235L132.84,18.466z"/>
	<path fill="#FFFFFF" d="M167.263,24.405c-0.162,0.216-0.351,0.566-0.405,0.782H156.52c-6.694,0-9.744-1.214-11.526-5.695
		c-0.297,2.591-0.863,4.777-1.916,6.505c-0.135-0.135-0.459-0.404-0.647-0.539c1.7-2.727,1.997-6.884,2.105-11.823l0.836,0.054
		c-0.054,1.403-0.107,2.726-0.188,3.968c0.675,2.429,1.674,4.022,3.158,5.047v-11.58h-5.372v-0.783h5.156V6.131h-4.67V5.348h4.67
		V1.569h0.782v3.779h4.67v0.783h-4.67v4.211h5.291v0.783h-5.075v4.778h4.886v0.783h-4.886v6.505
		c1.755,0.891,4.104,1.215,7.315,1.215H167.263z M159.894,3.647c-0.405,4.724-2.187,7.45-5.561,9.231
		c-0.107-0.162-0.432-0.486-0.621-0.648c3.32-1.539,4.967-4.184,5.345-8.583h-4.589V2.865h11.742c0,0,0,0.351-0.027,0.513
		c-0.297,5.209-0.539,7.045-1.134,7.666c-0.323,0.297-0.647,0.432-1.322,0.432c-0.54,0.027-1.755,0-2.942-0.081
		c-0.026-0.243-0.107-0.54-0.216-0.783c1.323,0.135,2.592,0.135,2.97,0.135c0.432,0.027,0.701,0,0.863-0.216
		c0.432-0.486,0.729-2.187,0.999-6.883H159.894z M155.548,13.365h10.096v8.206h-10.096V13.365z M156.331,20.788h8.529v-6.641h-8.529
		V20.788z"/>
	<path fill="#FFFFFF" d="M179.85,15.119c0.027,0.189,0.081,0.513,0.135,0.702c-7.423,2.294-8.179,2.564-8.638,2.915
		c-0.027-0.216-0.162-0.648-0.27-0.864c0.459-0.081,1.16-0.837,1.97-1.835c0.595-0.648,2.079-2.457,3.563-4.67
		c-4.454,0.675-5.074,0.783-5.398,0.972c-0.054-0.216-0.189-0.647-0.297-0.863c0.404-0.081,0.891-0.81,1.538-1.755
		c0.621-0.945,2.835-4.616,4.157-8.017l0.783,0.378c-1.458,3.266-3.213,6.586-4.994,9.069l4.777-0.621
		c0.675-0.972,1.323-2.024,1.89-3.05l0.783,0.378c-2.052,3.374-4.4,6.667-6.694,9.231L179.85,15.119z M180.309,20.599
		c-3.293,1.133-6.694,2.321-9.15,3.158l-0.217-0.783c2.295-0.756,5.777-1.97,9.232-3.158L180.309,20.599z M194.074,11.448
		c-0.863,3.752-2.375,6.694-4.318,9.07c1.646,2.051,3.536,3.698,5.669,4.723c-0.217,0.162-0.486,0.459-0.648,0.675
		c-2.078-1.079-3.94-2.726-5.533-4.777c-1.971,2.16-4.265,3.725-6.748,4.832c-0.108-0.189-0.405-0.513-0.594-0.648
		c2.537-1.053,4.886-2.645,6.829-4.832c-1.89-2.591-3.374-5.749-4.481-9.096c-0.594,6.073-1.754,10.824-4.508,14.521
		c-0.162-0.135-0.513-0.377-0.701-0.513c3.752-4.696,4.534-11.958,4.831-21.189h-3.4V3.432h11.256
		c-0.729,2.429-1.646,5.641-2.402,7.801h4.049l0.188-0.054L194.074,11.448z M184.708,4.214c-0.081,1.862-0.188,3.59-0.297,5.236
		c1.053,3.806,2.699,7.45,4.858,10.393c1.674-2.079,2.997-4.67,3.807-7.828h-4.859c0.756-1.97,1.728-5.236,2.43-7.801H184.708z"/>
	<path fill="#FFFFFF" d="M207.146,2.595c8.638,6.046,7.261,16.952,16.547,22.188c-0.189,0.216-0.378,0.539-0.433,0.81
		c-6.883-3.86-8.151-10.851-11.553-16.655c-1.997,8.044-5.479,13.416-11.58,16.924c-0.135-0.162-0.485-0.485-0.729-0.647
		c6.37-3.401,9.825-9.097,11.661-17.275c-1.134-1.755-2.537-3.374-4.4-4.697L207.146,2.595z"/>
	<path fill="#FFFFFF" d="M249.533,4.592v20.298h-0.783v-2.213h-17.572v2.429h-0.782V4.592H249.533z M248.75,21.895V5.375h-17.572
		v16.52H248.75z"/>
</g>
<g>
	<path fill="#FFFFFF" d="M25.429,50.613v-1.055h5.903v1.055H28.93v9.72h-1.099v-9.72H25.429z"/>
	<path fill="#FFFFFF" d="M33.621,49.559h1.077v4.52h5.486v-4.52h1.077v10.774h-1.077v-5.2h-5.486v5.2h-1.077V49.559z"/>
	<path fill="#FFFFFF" d="M44.639,49.559h6.174v1.055h-5.098v3.377h5.054v1.055h-5.054v4.233h5.054v1.055h-6.13V49.559z"/>
	<path fill="#FFFFFF" d="M57.213,58.326l0.916-0.549c0.645,1.186,1.389,1.779,2.234,1.779c0.361,0,0.701-0.084,1.018-0.253
		c0.317-0.168,0.559-0.394,0.725-0.677s0.249-0.584,0.249-0.901c0-0.361-0.122-0.716-0.366-1.062
		c-0.337-0.479-0.952-1.055-1.846-1.729c-0.898-0.68-1.458-1.17-1.677-1.473c-0.381-0.508-0.571-1.057-0.571-1.648
		c0-0.469,0.112-0.896,0.337-1.281s0.541-0.689,0.948-0.912c0.408-0.222,0.851-0.333,1.33-0.333c0.508,0,0.982,0.126,1.424,0.377
		c0.442,0.252,0.91,0.714,1.403,1.388l-0.879,0.667c-0.405-0.537-0.75-0.892-1.037-1.062c-0.285-0.172-0.597-0.257-0.934-0.257
		c-0.435,0-0.79,0.132-1.065,0.396c-0.276,0.264-0.414,0.588-0.414,0.975c0,0.234,0.049,0.461,0.146,0.681s0.276,0.459,0.535,0.718
		c0.142,0.137,0.605,0.496,1.392,1.076c0.933,0.689,1.572,1.302,1.919,1.839s0.52,1.077,0.52,1.618c0,0.781-0.297,1.461-0.89,2.037
		c-0.594,0.576-1.315,0.864-2.165,0.864c-0.654,0-1.248-0.175-1.78-0.524C58.153,59.731,57.663,59.146,57.213,58.326z"/>
	<path fill="#FFFFFF" d="M66.584,49.559h1.077v6.504c0,0.771,0.015,1.253,0.044,1.443c0.054,0.425,0.178,0.78,0.374,1.065
		c0.195,0.286,0.496,0.525,0.901,0.718c0.405,0.193,0.813,0.289,1.223,0.289c0.356,0,0.698-0.075,1.025-0.227s0.601-0.361,0.82-0.63
		s0.381-0.593,0.483-0.974c0.073-0.273,0.11-0.836,0.11-1.686v-6.504h1.077v6.504c0,0.963-0.094,1.74-0.282,2.333
		c-0.188,0.594-0.563,1.11-1.128,1.55c-0.563,0.438-1.246,0.659-2.047,0.659c-0.869,0-1.614-0.208-2.234-0.623
		s-1.035-0.964-1.245-1.647c-0.132-0.42-0.198-1.178-0.198-2.271V49.559z"/>
	<path fill="#FFFFFF" d="M77.112,49.559h2.146c1.23,0,2.061,0.055,2.49,0.162c0.615,0.15,1.118,0.463,1.509,0.934
		s0.586,1.063,0.586,1.775c0,0.719-0.19,1.311-0.571,1.776c-0.381,0.467-0.906,0.78-1.575,0.941
		c-0.488,0.117-1.401,0.176-2.739,0.176h-0.769v5.01h-1.077V49.559z M78.188,50.613v3.655l1.824,0.022
		c0.737,0,1.277-0.067,1.619-0.201c0.342-0.135,0.61-0.352,0.806-0.65c0.195-0.301,0.293-0.635,0.293-1.006
		c0-0.36-0.098-0.69-0.293-0.99s-0.453-0.513-0.772-0.64c-0.32-0.126-0.844-0.19-1.571-0.19H78.188z"/>
	<path fill="#FFFFFF" d="M86.753,49.559h6.174v1.055H87.83v3.377h5.054v1.055H87.83v4.233h5.054v1.055h-6.13V49.559z"/>
	<path fill="#FFFFFF" d="M95.597,49.559h2.146c1.196,0,2.007,0.049,2.432,0.146c0.64,0.147,1.16,0.461,1.56,0.943
		c0.4,0.481,0.601,1.074,0.601,1.778c0,0.587-0.138,1.103-0.414,1.547c-0.276,0.445-0.67,0.781-1.183,1.009
		c-0.513,0.227-1.221,0.344-2.124,0.348l3.875,5.003h-1.332l-3.875-5.003h-0.609v5.003h-1.077V49.559z M96.673,50.613v3.662
		l1.856,0.016c0.719,0,1.251-0.068,1.596-0.205s0.614-0.355,0.807-0.656c0.193-0.3,0.29-0.636,0.29-1.007
		c0-0.361-0.098-0.689-0.293-0.985c-0.196-0.295-0.452-0.506-0.771-0.633c-0.318-0.127-0.846-0.191-1.584-0.191H96.673z"/>
	<path fill="#FFFFFF" d="M105.238,49.559h1.077v10.774h-1.077V49.559z"/>
	<path fill="#FFFFFF" d="M114.664,49.288c1.631,0,2.997,0.544,4.097,1.634c1.099,1.088,1.649,2.429,1.649,4.021
		c0,1.577-0.548,2.915-1.646,4.014c-1.097,1.099-2.434,1.648-4.012,1.648c-1.598,0-2.946-0.548-4.046-1.642
		c-1.099-1.094-1.649-2.416-1.649-3.969c0-1.035,0.25-1.995,0.751-2.879c0.501-0.884,1.184-1.576,2.049-2.076
		C112.722,49.539,113.657,49.288,114.664,49.288z M114.711,50.336c-0.797,0-1.553,0.207-2.267,0.623
		c-0.714,0.415-1.271,0.975-1.672,1.678c-0.401,0.704-0.602,1.488-0.602,2.354c0,1.28,0.444,2.361,1.332,3.243
		s1.958,1.323,3.209,1.323c0.836,0,1.61-0.203,2.322-0.608s1.267-0.96,1.665-1.664c0.399-0.704,0.598-1.485,0.598-2.346
		c0-0.854-0.199-1.628-0.598-2.319c-0.398-0.691-0.959-1.245-1.684-1.66C116.291,50.543,115.523,50.336,114.711,50.336z"/>
	<path fill="#FFFFFF" d="M123.379,49.559h2.146c1.195,0,2.006,0.049,2.432,0.146c0.639,0.147,1.159,0.461,1.56,0.943
		c0.4,0.481,0.601,1.074,0.601,1.778c0,0.587-0.138,1.103-0.414,1.547c-0.275,0.445-0.67,0.781-1.183,1.009
		c-0.513,0.227-1.221,0.344-2.124,0.348l3.875,5.003h-1.332l-3.875-5.003h-0.609v5.003h-1.077V49.559z M124.456,50.613v3.662
		l1.856,0.016c0.719,0,1.251-0.068,1.596-0.205s0.613-0.355,0.807-0.656c0.193-0.3,0.29-0.636,0.29-1.007
		c0-0.361-0.098-0.689-0.293-0.985c-0.196-0.295-0.453-0.506-0.771-0.633c-0.318-0.127-0.847-0.191-1.585-0.191H124.456z"/>
	<path fill="#FFFFFF" d="M142.479,49.559l5.024,10.774h-1.163l-1.694-3.545h-4.642l-1.678,3.545h-1.201l5.09-10.774H142.479z
		 M142.343,51.848l-1.847,3.9h3.684L142.343,51.848z"/>
	<path fill="#FFFFFF" d="M159.957,51.559l-0.85,0.652c-0.469-0.611-1.031-1.073-1.688-1.389c-0.657-0.314-1.379-0.473-2.164-0.473
		c-0.86,0-1.656,0.207-2.389,0.619c-0.732,0.413-1.3,0.967-1.702,1.663c-0.403,0.695-0.604,1.478-0.604,2.347
		c0,1.314,0.45,2.41,1.352,3.289c0.9,0.879,2.037,1.318,3.409,1.318c1.509,0,2.771-0.591,3.786-1.772l0.85,0.645
		c-0.537,0.684-1.207,1.212-2.01,1.586c-0.804,0.373-1.701,0.561-2.691,0.561c-1.886,0-3.372-0.628-4.461-1.883
		c-0.913-1.06-1.369-2.339-1.369-3.838c0-1.577,0.553-2.904,1.658-3.98c1.106-1.077,2.491-1.615,4.156-1.615
		c1.006,0,1.914,0.199,2.725,0.597C158.775,50.283,159.439,50.841,159.957,51.559z"/>
	<path fill="#FFFFFF" d="M172.902,51.559l-0.85,0.652c-0.469-0.611-1.032-1.073-1.688-1.389c-0.657-0.314-1.379-0.473-2.165-0.473
		c-0.859,0-1.654,0.207-2.387,0.619c-0.732,0.413-1.301,0.967-1.703,1.663c-0.403,0.695-0.604,1.478-0.604,2.347
		c0,1.314,0.45,2.41,1.352,3.289c0.9,0.879,2.037,1.318,3.409,1.318c1.509,0,2.771-0.591,3.787-1.772l0.85,0.645
		c-0.538,0.684-1.208,1.212-2.011,1.586c-0.804,0.373-1.701,0.561-2.692,0.561c-1.885,0-3.371-0.628-4.46-1.883
		c-0.913-1.06-1.37-2.339-1.37-3.838c0-1.577,0.554-2.904,1.659-3.98c1.106-1.077,2.491-1.615,4.157-1.615
		c1.005,0,1.913,0.199,2.725,0.597C171.72,50.283,172.384,50.841,172.902,51.559z"/>
	<path fill="#FFFFFF" d="M175.82,49.559h6.174v1.055h-5.098v3.377h5.055v1.055h-5.055v4.233h5.055v1.055h-6.131V49.559z"/>
	<path fill="#FFFFFF" d="M183.492,58.326l0.915-0.549c0.645,1.186,1.389,1.779,2.233,1.779c0.361,0,0.701-0.084,1.019-0.253
		c0.317-0.168,0.559-0.394,0.726-0.677c0.165-0.283,0.248-0.584,0.248-0.901c0-0.361-0.122-0.716-0.365-1.062
		c-0.338-0.479-0.953-1.055-1.846-1.729c-0.899-0.68-1.458-1.17-1.678-1.473c-0.381-0.508-0.571-1.057-0.571-1.648
		c0-0.469,0.112-0.896,0.337-1.281s0.541-0.689,0.948-0.912c0.408-0.222,0.851-0.333,1.329-0.333c0.508,0,0.983,0.126,1.425,0.377
		c0.442,0.252,0.909,0.714,1.403,1.388l-0.879,0.667c-0.406-0.537-0.751-0.892-1.037-1.062c-0.285-0.172-0.597-0.257-0.934-0.257
		c-0.435,0-0.79,0.132-1.065,0.396c-0.276,0.264-0.414,0.588-0.414,0.975c0,0.234,0.049,0.461,0.146,0.681s0.275,0.459,0.534,0.718
		c0.142,0.137,0.605,0.496,1.393,1.076c0.932,0.689,1.571,1.302,1.918,1.839s0.521,1.077,0.521,1.618
		c0,0.781-0.297,1.461-0.89,2.037c-0.594,0.576-1.314,0.864-2.164,0.864c-0.655,0-1.248-0.175-1.78-0.524
		C184.432,59.731,183.94,59.146,183.492,58.326z"/>
	<path fill="#FFFFFF" d="M191.713,58.326l0.915-0.549c0.645,1.186,1.389,1.779,2.233,1.779c0.361,0,0.701-0.084,1.019-0.253
		c0.317-0.168,0.559-0.394,0.726-0.677c0.165-0.283,0.248-0.584,0.248-0.901c0-0.361-0.122-0.716-0.365-1.062
		c-0.338-0.479-0.953-1.055-1.846-1.729c-0.899-0.68-1.458-1.17-1.678-1.473c-0.381-0.508-0.571-1.057-0.571-1.648
		c0-0.469,0.112-0.896,0.337-1.281s0.541-0.689,0.948-0.912c0.408-0.222,0.851-0.333,1.329-0.333c0.508,0,0.983,0.126,1.425,0.377
		c0.442,0.252,0.909,0.714,1.403,1.388l-0.879,0.667c-0.406-0.537-0.751-0.892-1.037-1.062c-0.285-0.172-0.597-0.257-0.934-0.257
		c-0.435,0-0.79,0.132-1.065,0.396c-0.276,0.264-0.414,0.588-0.414,0.975c0,0.234,0.049,0.461,0.146,0.681s0.275,0.459,0.534,0.718
		c0.142,0.137,0.605,0.496,1.393,1.076c0.932,0.689,1.571,1.302,1.918,1.839s0.521,1.077,0.521,1.618
		c0,0.781-0.297,1.461-0.89,2.037c-0.594,0.576-1.314,0.864-2.164,0.864c-0.655,0-1.248-0.175-1.78-0.524
		C192.652,59.731,192.161,59.146,191.713,58.326z"/>
	<path fill="#FFFFFF" d="M204.881,50.613v-1.055h5.902v1.055h-2.402v9.72h-1.098v-9.72H204.881z"/>
	<path fill="#FFFFFF" d="M218.217,49.288c1.632,0,2.998,0.544,4.097,1.634c1.1,1.088,1.649,2.429,1.649,4.021
		c0,1.577-0.549,2.915-1.646,4.014s-2.435,1.648-4.013,1.648c-1.598,0-2.946-0.548-4.045-1.642c-1.1-1.094-1.649-2.416-1.649-3.969
		c0-1.035,0.25-1.995,0.751-2.879s1.184-1.576,2.049-2.076C216.274,49.539,217.21,49.288,218.217,49.288z M218.265,50.336
		c-0.797,0-1.553,0.207-2.267,0.623c-0.715,0.415-1.271,0.975-1.673,1.678c-0.401,0.704-0.602,1.488-0.602,2.354
		c0,1.28,0.443,2.361,1.331,3.243s1.958,1.323,3.21,1.323c0.836,0,1.61-0.203,2.321-0.608c0.712-0.405,1.268-0.96,1.666-1.664
		s0.598-1.485,0.598-2.346c0-0.854-0.199-1.628-0.598-2.319s-0.96-1.245-1.684-1.66C219.845,50.543,219.076,50.336,218.265,50.336z"
		/>
	<path fill="#FFFFFF" d="M41.129,77.56h1.077v4.519h5.486V77.56h1.077v10.773h-1.077v-5.2h-5.486v5.2h-1.077V77.56z"/>
	<path fill="#FFFFFF" d="M57.271,77.288c1.632,0,2.998,0.545,4.097,1.633c1.099,1.09,1.649,2.43,1.649,4.021
		c0,1.577-0.548,2.915-1.646,4.014c-1.097,1.099-2.434,1.648-4.013,1.648c-1.598,0-2.946-0.547-4.045-1.641
		c-1.099-1.094-1.649-2.418-1.649-3.971c0-1.034,0.25-1.994,0.751-2.878c0.501-0.884,1.184-1.576,2.049-2.076
		C55.329,77.538,56.264,77.288,57.271,77.288z M57.318,78.335c-0.797,0-1.553,0.208-2.267,0.624
		c-0.714,0.415-1.272,0.975-1.673,1.678c-0.401,0.704-0.602,1.488-0.602,2.354c0,1.28,0.444,2.361,1.332,3.243
		s1.958,1.323,3.209,1.323c0.836,0,1.61-0.203,2.322-0.608s1.267-0.96,1.665-1.664c0.399-0.703,0.598-1.485,0.598-2.346
		c0-0.854-0.199-1.628-0.598-2.319c-0.398-0.691-0.959-1.245-1.683-1.66C58.898,78.543,58.13,78.335,57.318,78.335z"/>
	<path fill="#FFFFFF" d="M65.964,77.56h1.077v6.504c0,0.771,0.015,1.252,0.044,1.442c0.054,0.425,0.178,0.78,0.374,1.065
		c0.195,0.286,0.496,0.525,0.901,0.718c0.405,0.193,0.813,0.29,1.223,0.29c0.356,0,0.698-0.076,1.025-0.228s0.601-0.361,0.82-0.63
		s0.381-0.594,0.483-0.975c0.073-0.272,0.11-0.834,0.11-1.684V77.56h1.077v6.504c0,0.962-0.094,1.739-0.282,2.332
		c-0.188,0.594-0.563,1.109-1.128,1.549c-0.563,0.439-1.246,0.66-2.047,0.66c-0.869,0-1.614-0.208-2.234-0.623
		s-1.035-0.964-1.245-1.648c-0.132-0.419-0.198-1.176-0.198-2.27V77.56z"/>
	<path fill="#FFFFFF" d="M75.386,86.326l0.916-0.55c0.645,1.188,1.389,1.78,2.234,1.78c0.361,0,0.701-0.084,1.018-0.253
		c0.317-0.168,0.559-0.394,0.725-0.678c0.166-0.282,0.249-0.583,0.249-0.9c0-0.361-0.122-0.715-0.366-1.063
		c-0.337-0.478-0.952-1.055-1.846-1.729c-0.898-0.678-1.458-1.169-1.677-1.472c-0.381-0.508-0.571-1.057-0.571-1.647
		c0-0.469,0.112-0.896,0.337-1.282s0.541-0.689,0.949-0.912c0.407-0.222,0.851-0.333,1.329-0.333c0.508,0,0.982,0.126,1.425,0.377
		c0.441,0.252,0.909,0.715,1.402,1.389L80.63,79.72c-0.405-0.537-0.751-0.891-1.036-1.063c-0.286-0.17-0.597-0.256-0.934-0.256
		c-0.435,0-0.79,0.132-1.066,0.396s-0.414,0.589-0.414,0.974c0,0.234,0.049,0.462,0.146,0.682s0.276,0.459,0.535,0.718
		c0.142,0.137,0.605,0.496,1.392,1.077c0.933,0.688,1.572,1.301,1.919,1.838s0.52,1.076,0.52,1.619c0,0.781-0.296,1.46-0.89,2.035
		c-0.593,0.577-1.314,0.865-2.164,0.865c-0.654,0-1.248-0.175-1.78-0.524C76.326,87.731,75.835,87.146,75.386,86.326z"/>
	<path fill="#FFFFFF" d="M84.727,77.56h6.174v1.055h-5.098v3.376h5.054v1.055h-5.054v4.233h5.054v1.055h-6.13V77.56z"/>
	<path fill="#FFFFFF" d="M93.497,77.56h1.077v4.519h5.486V77.56h1.077v10.773h-1.077v-5.2h-5.486v5.2h-1.077V77.56z"/>
	<path fill="#FFFFFF" d="M109.639,77.288c1.632,0,2.998,0.545,4.097,1.633c1.099,1.09,1.649,2.43,1.649,4.021
		c0,1.577-0.548,2.915-1.646,4.014c-1.097,1.099-2.434,1.648-4.013,1.648c-1.598,0-2.946-0.547-4.045-1.641
		c-1.099-1.094-1.649-2.418-1.649-3.971c0-1.034,0.25-1.994,0.751-2.878c0.501-0.884,1.184-1.576,2.049-2.076
		C107.697,77.538,108.632,77.288,109.639,77.288z M109.687,78.335c-0.797,0-1.553,0.208-2.267,0.624
		c-0.714,0.415-1.272,0.975-1.673,1.678c-0.401,0.704-0.602,1.488-0.602,2.354c0,1.28,0.444,2.361,1.332,3.243
		s1.958,1.323,3.209,1.323c0.836,0,1.61-0.203,2.322-0.608s1.267-0.96,1.665-1.664c0.399-0.703,0.598-1.485,0.598-2.346
		c0-0.854-0.199-1.628-0.598-2.319c-0.398-0.691-0.959-1.245-1.683-1.66C111.266,78.543,110.499,78.335,109.687,78.335z"/>
	<path fill="#FFFFFF" d="M118.295,77.56h1.077v9.733h4.146v1.04h-5.222V77.56z"/>
	<path fill="#FFFFFF" d="M125.975,88.333V77.56h2.233c1.611,0,2.78,0.129,3.509,0.388c1.044,0.366,1.861,1.001,2.449,1.904
		c0.589,0.903,0.883,1.98,0.883,3.229c0,1.08-0.233,2.029-0.699,2.85c-0.467,0.82-1.072,1.426-1.816,1.816
		c-0.745,0.391-1.789,0.586-3.131,0.586H125.975z M127.007,87.315h1.245c1.489,0,2.521-0.093,3.098-0.278
		c0.811-0.264,1.448-0.738,1.912-1.424s0.695-1.523,0.695-2.514c0-1.039-0.251-1.927-0.754-2.664
		c-0.503-0.736-1.204-1.241-2.102-1.515c-0.674-0.205-1.785-0.307-3.333-0.307h-0.762V87.315z"/>
	<path fill="#E5A419" d="M142.789,77.56h5.398v1.055h-4.321v3.376h4.321v1.055h-4.321v5.288h-1.077V77.56z"/>
	<path fill="#E5A419" d="M150.658,77.56h1.076v10.773h-1.076V77.56z"/>
	<path fill="#E5A419" d="M154.961,88.333V77.56h0.234l7.17,8.258V77.56h1.063v10.773h-0.242l-7.111-8.158v8.158H154.961z"/>
	<path fill="#E5A419" d="M171.201,77.56l5.024,10.773h-1.163l-1.694-3.545h-4.642l-1.678,3.545h-1.201l5.09-10.773H171.201z
		 M171.065,79.848l-1.847,3.9h3.684L171.065,79.848z"/>
	<path fill="#E5A419" d="M178.652,88.333V77.56h0.234l7.17,8.258V77.56h1.063v10.773h-0.242l-7.111-8.158v8.158H178.652z"/>
	<path fill="#E5A419" d="M200.525,79.559l-0.85,0.651c-0.469-0.609-1.031-1.072-1.688-1.388c-0.657-0.314-1.379-0.472-2.164-0.472
		c-0.86,0-1.656,0.206-2.389,0.618c-0.732,0.413-1.3,0.967-1.702,1.663c-0.403,0.695-0.604,1.479-0.604,2.348
		c0,1.313,0.45,2.409,1.352,3.288c0.9,0.879,2.037,1.318,3.409,1.318c1.509,0,2.771-0.591,3.786-1.772l0.85,0.645
		c-0.537,0.684-1.207,1.212-2.01,1.586c-0.804,0.373-1.701,0.561-2.691,0.561c-1.886,0-3.372-0.628-4.461-1.883
		c-0.913-1.06-1.369-2.339-1.369-3.838c0-1.577,0.553-2.904,1.658-3.98c1.106-1.077,2.491-1.615,4.156-1.615
		c1.006,0,1.914,0.199,2.725,0.597C199.344,78.283,200.008,78.841,200.525,79.559z"/>
	<path fill="#E5A419" d="M203.443,77.56h6.174v1.055h-5.098v3.376h5.055v1.055h-5.055v4.233h5.055v1.055h-6.131V77.56z"/>
</g>
</svg>
