<?xml version="1.0" standalone="no"?><!DOCTYPE svg PUBLIC "-//W3C//DTD SVG 1.1//EN" "http://www.w3.org/Graphics/SVG/1.1/DTD/svg11.dtd"><svg class="icon" width="40px" height="40.00px" viewBox="0 0 1024 1024" version="1.1" xmlns="http://www.w3.org/2000/svg"><path fill="#ffffff" d="M668.61487 400.453962c22.249772-52.919677 92.264436-222.304382 92.264436-258.215003L760.879306 1.022978 523.061462 1.022978 286.56019 1.022978l0 141.215981c0 35.99962 69.552277 206.419579 91.251688 258.706033C269.777213 454.783303 195.344307 566.146739 195.344307 695.186213c0 181.613384 147.013198 328.81481 328.375952 328.81481 181.361732 0 328.375952-147.201426 328.375952-328.81481C852.096212 565.735502 777.199897 454.088701 668.61487 400.453962zM323.046748 142.238959 323.046748 37.557616l181.771946 0 0 249.947295 36.485535 0L541.304229 37.557616l183.090565 0 0 104.681343c0 20.024795-44.770634 137.915854-89.379638 243.926046-34.794552-12.576492-72.171101-19.784395-111.293873-19.784395-39.532987 0-77.266555 7.358281-112.362885 20.177219C373.464221 295.184407 323.046748 164.270837 323.046748 142.238959zM523.720259 987.465362c-160.946159 0-291.889394-131.119188-291.889394-292.279149s130.944259-292.269942 291.889394-292.269942c160.946159 0 291.889394 131.109981 291.889394 292.269942S684.666418 987.465362 523.720259 987.465362zM523.720259 475.986569c-120.896568 0-218.917302 98.142468-218.917302 219.199644 0 121.074567 98.021756 219.209873 218.917302 219.209873 120.913959 0 218.917302-98.135307 218.917302-219.209873C742.637561 574.128014 644.634218 475.986569 523.720259 475.986569zM523.720259 877.861448c-100.587385 0-182.430744-81.944633-182.430744-182.674212 0-100.720372 81.844381-182.666029 182.430744-182.666029 100.603753 0 182.431767 81.944633 182.431767 182.666029C706.152026 795.915792 624.324012 877.861448 523.720259 877.861448z" /></svg>