<?xml version="1.0" standalone="no"?><!DOCTYPE svg PUBLIC "-//W3C//DTD SVG 1.1//EN" "http://www.w3.org/Graphics/SVG/1.1/DTD/svg11.dtd"><svg t="1493257487620" class="icon" style="" viewBox="0 0 1024 1024" version="1.1" xmlns="http://www.w3.org/2000/svg" p-id="3694" xmlns:xlink="http://www.w3.org/1999/xlink" width="40" height="40"><defs><style type="text/css"></style></defs><path d="M849.353 239.362h-613.673c-48.977 0-88.681-39.704-88.681-88.681s39.704-88.681 88.681-88.681h527.267c15.242 0.003 27.597 12.359 27.597 27.601s-12.354 27.598-27.597 27.601h-527.267c-18.476 0-33.455 14.978-33.455 33.455s14.978 33.455 33.455 33.455h613.673c0.002 0 0.004 0 0.006 0 15.244 0 27.601 12.357 27.601 27.601 0 15.244-12.357 27.601-27.601 27.601-0.002 0-0.004 0-0.006 0zM849.353 962h-613.673c-48.93-0.103-88.562-39.766-88.613-88.699 0.003-15.247 12.359-27.601 27.601-27.601 15.242 0 27.598 12.354 27.601 27.597 0 0.014 0 0.030 0 0.046 0 18.46 14.953 33.429 33.407 33.455h613.676c0.002 0 0.004 0 0.006 0 15.244 0 27.601 12.357 27.601 27.601 0 15.244-12.357 27.601-27.601 27.601-0.002 0-0.004 0-0.006 0z" fill="#ffffff" p-id="3695"></path><path d="M174.669 900.898c-15.244 0-27.601-12.357-27.601-27.601 0 0 0 0 0 0v-722.638c0-0.002 0-0.004 0-0.006 0-15.244 12.357-27.601 27.601-27.601 15.244 0 27.601 12.357 27.601 27.601 0 0.002 0 0.004 0 0.006v722.638c0 15.244-12.357 27.601-27.601 27.601zM849.353 962c-15.244 0-27.601-12.357-27.601-27.601 0 0 0 0 0 0v-722.638c0-15.256 12.368-27.624 27.624-27.624s27.624 12.368 27.624 27.624c0 0 0 0 0 0v722.594c0 15.244-12.357 27.601-27.601 27.601zM762.992 239.362c-15.244 0-27.601-12.357-27.601-27.601v-122.158c0.003-15.242 12.359-27.597 27.601-27.597s27.598 12.354 27.601 27.597v122.158c0 15.244-12.357 27.601-27.601 27.601zM671.993 418.885h-332.209c-15.242-0.003-27.597-12.359-27.597-27.601s12.354-27.598 27.597-27.601h332.21c15.242 0.003 27.597 12.359 27.597 27.601s-12.354 27.598-27.597 27.601zM512.011 544.059h-172.229c-15.244 0-27.601-12.357-27.601-27.601s12.357-27.601 27.601-27.601h172.183c15.244 0 27.601 12.357 27.601 27.601s-12.357 27.601-27.601 27.601z" fill="#ffffff" p-id="3696"></path></svg>