<?xml version="1.0" standalone="no"?><!DOCTYPE svg PUBLIC "-//W3C//DTD SVG 1.1//EN" "http://www.w3.org/Graphics/SVG/1.1/DTD/svg11.dtd"><svg class="icon" width="40px" height="36.51px" viewBox="0 0 1122 1024" version="1.1" xmlns="http://www.w3.org/2000/svg"><path fill="#ffffff" d="M2.198036 146.677641l-1.108241-16.882506-1.089821 17.302061 0.491187 7.79043 0 18.251689 0.024559 0.599657c0.010233 0.249687 0.25378 6.132674 0.581238 6.39464 0.007163 0.00614 0.013303 0.008186 0.020466 0.008186 0.321318 0 0.528026-6.009877 0.537236-6.271844l0.020466-0.592494 0-18.215874L2.198036 146.677641 2.198036 146.677641zM1.090819 134.228097l0.822738 12.538571-0.823761 13.1853-0.809435-12.856819L1.090819 134.228097 1.090819 134.228097zM1.54926 171.46314c-0.055259 1.357927-0.223081 4.848425-0.450255 4.680603-0.231267-0.185218-0.419556-3.669576-0.484024-5.033643L0.614981 156.865677l0.474814 7.544837 0.459464-7.354502L1.54926 171.46314 1.54926 171.46314zM1.54926 171.46314M1049.889621 695.479825 866.952149 512.298805l165.362188-165.156504c27.757181-27.757181 33.085536-65.673745 20.587897-101.296057-20.35356-48.578392-108.48069-117.972878-148.033521-157.527756-34.701336-34.912138-93.198635-36.308951-129.061424-1.607614L608.355509 254.155491 425.153001 70.984704c-12.716626-12.482289-33.298384-12.482289-46.25651 0L172.578518 277.0622c-12.483312 12.482289-12.483312 33.304524 0 46.254463l183.203532 182.968172L172.820018 689.457668c-5.780657 5.780657-9.478885 14.352893-9.478885 22.670326 0 71.009264-0.233314 141.567249-0.233314 212.335013 0 18.042935 14.113439 33.304524 32.610722 33.304524l212.341153 0c8.550747 0 17.09433-3.222391 23.592324-9.714246l182.719508-182.945659 182.705182 182.493358 0.927115 0.452301c12.264325 12.716626 33.319873 12.716626 45.802162 0l206.084659-206.318996C1063.082085 728.776162 1063.082085 708.429765 1049.889621 695.479825L1049.889621 695.479825 1049.889621 695.479825zM821.142824 133.201721 821.142824 133.201721c10.634198-9.714246 27.757181-9.026584 37.945217 1.373277 42.324968 42.346457 84.889389 85.362156 127.658472 127.445624 10.632151 10.42135 10.188037 28.684296 0 39.107693l-58.526975 58.051137-36.755112-37.238113 0-0.233314-1.636267-0.921999-0.454348-0.474814-90.208535-89.740884 0-0.927115-0.220011-0.446162-0.467651 0-36.783765-36.549427L821.142824 133.201721 821.142824 133.201721 821.142824 133.201721zM849.133318 335.113337 849.133318 335.113337C682.376363 502.586606 514.893884 669.563572 347.916919 837.038888l-64.088644-64.068178 502.167051-501.450736C806.818583 293.022707 828.31927 314.290079 849.133318 335.113337L849.133318 335.113337 849.133318 335.113337zM241.980168 300.200176 241.980168 300.200176l159.823032-160.297846 31.213909 31.215956-56.888661 56.919361c-7.629771 7.621585-7.629771 20.104897 0 27.51568 7.621585 7.395434 20.12741 7.395434 27.757181 0l56.654324-56.911174 46.278 46.043662-28.677133 28.92068c-7.652284 7.863085-7.652284 20.104897 0 27.734668 7.621585 7.863085 20.104897 7.863085 27.523867 0l28.889981-28.897144 27.54638 27.523867L401.8032 460.240149 241.980168 300.200176 241.980168 300.200176 241.980168 300.200176zM733.936669 220.384339 733.936669 220.384339l24.293289 23.612791L256.545908 745.426377l-23.825638-23.804149L733.936669 220.384339 733.936669 220.384339 733.936669 220.384339zM228.336426 892.537899 228.336426 892.537899c0-40.240493-0.234337-80.479963-0.234337-120.03484l120.268154 120.03484L228.336426 892.537899 228.336426 892.537899 228.336426 892.537899zM399.266424 888.154056 399.266424 888.154056l-24.059975-23.825638C542.659251 697.320753 709.65873 529.868973 876.898685 362.424356l23.802102 24.038486L399.266424 888.154056 399.266424 888.154056 399.266424 888.154056zM820.666986 878.658797 820.666986 878.658797l-160.27431-159.594835L820.666986 559.007617l30.767747 30.317493-28.897144 28.442796c-7.410783 8.309246-7.410783 20.581758 0 27.759227 7.865131 7.863085 20.348444 7.863085 27.523867 0l28.89919-28.444842 46.278 46.012963-57.152674 57.365522c-7.390317 7.395434-7.390317 19.424398 0 27.757181 8.097422 7.153934 20.133549 7.153934 27.757181 0l57.130162-57.833173 28.233018 28.67918L820.666986 878.658797 820.666986 878.658797 820.666986 878.658797zM820.666986 878.658797" /></svg>