<?xml version="1.0" standalone="no"?><!DOCTYPE svg PUBLIC "-//W3C//DTD SVG 1.1//EN" "http://www.w3.org/Graphics/SVG/1.1/DTD/svg11.dtd"><svg t="1490929281614" class="icon" style="" viewBox="0 0 1024 1024" version="1.1" xmlns="http://www.w3.org/2000/svg" p-id="2811" xmlns:xlink="http://www.w3.org/1999/xlink" width="30" height="30"><defs><style type="text/css"></style></defs><path d="M958.708971 188.134845 958.708971 188.134845l0-59.560514-35.736922 0 0 65.379033L140.1776 321.391824c-43.186591 7.031137-74.887594 44.090171-74.887594 87.545892l0 183.788863c0 43.455721 31.701003 80.514755 74.887594 87.545892l177.805592 28.946262-0.970094 150.328797 223.354997 35.879162 0.967024-149.84682 381.637953 62.130036 0 65.380056 35.736922 0 0-59.561537 0 0L958.709995 188.134845zM504.900302 853.53356l-151.953807-24.409946 0.681522-105.669668 151.953807 24.409946L504.900302 853.53356zM101.026928 592.725556 101.026928 408.936693c0-26.054399 18.879999-48.039109 44.892443-52.273551l589.279061-95.934956 0 480.20383-589.279061-95.933933C119.906927 640.764666 101.026928 618.779955 101.026928 592.725556zM764.979712 745.781464 764.979712 255.880785l157.992337-25.720801 0 541.343305L764.979712 745.781464z" p-id="2812" fill="#ffffff"></path></svg>