<svg xmlns="http://www.w3.org/2000/svg" viewBox="0 0 154.84 57.5"><defs><style>.cls-1{fill:#fff;}.cls-2{fill:none;stroke:#fff;stroke-miterlimit:10;stroke-width:0.25px;}</style></defs><title>资源 1</title><g id="图层_2" data-name="图层 2"><g id="图层_1-2" data-name="图层 1"><path class="cls-1" d="M41.59,19.43a39.46,39.46,0,0,0,15.35-9.32q-1.81-2.92-3.7-5.8A33.77,33.77,0,0,1,37.67,13.6C39,15.51,40.44,17.41,41.59,19.43Z"/><path class="cls-1" d="M34.31,14.33a33.75,33.75,0,0,1-5.46.44A33.62,33.62,0,0,1,4.47,4.31Q2.58,7.18.77,10.11A40.29,40.29,0,0,0,28.86,21.48a40.37,40.37,0,0,0,9.37-1.1Q36.41,17.27,34.31,14.33Z"/><path class="cls-1" d="M7.29,35.61A101.11,101.11,0,0,1,24.91,8.45a5.33,5.33,0,0,1,7.88,0A101.11,101.11,0,0,1,50.42,35.61h7.29A107.91,107.91,0,0,0,37.76,3.94a12,12,0,0,0-17.81,0A107.92,107.92,0,0,0,0,35.61Z"/><path class="cls-1" d="M146.77,7v5.48a.53.53,0,0,0,.51.51h4v1.66h-4a.53.53,0,0,0-.53.51v2.55h-1.66V15.17a.53.53,0,0,0-.51-.51h-4V13h4a.53.53,0,0,0,.51-.51V7c0-.27-.15-.09-.15-.09a22.62,22.62,0,0,1-7.09,7.1L137,12.58a20.92,20.92,0,0,0,7-7.5.24.24,0,0,0-.25-.35h-6.32V3.08h7.08a.53.53,0,0,0,.53-.51V0h1.66V2.57a.53.53,0,0,0,.53.51h7.21V4.74H148c-.32,0-.18.33-.18.33a20.92,20.92,0,0,0,7,7.51L154,14a22.62,22.62,0,0,1-7.1-7.12S146.77,6.74,146.77,7Z"/><path class="cls-1" d="M102.26,10a.53.53,0,0,1-.53-.53V5.78a.53.53,0,0,1,.52-.53h6.3V3.59h-6.29a.53.53,0,0,1-.52-.53V0h-1.66V3.08a.53.53,0,0,1-.52.51H95.78a.46.46,0,0,1-.47-.53h0c.1-1.06.09-2.32.09-2.4V.56H93.75V.78a16.42,16.42,0,0,1-.46,3.94.39.39,0,0,0,.36.52h5.91a.53.53,0,0,1,.52.51v3.7a.53.53,0,0,1-.52.51H92.43v1.66h7.13a.53.53,0,0,1,.51.51v5.57h1.66V12.16a.53.53,0,0,1,.52-.53h7V10Z"/><path class="cls-1" d="M79.57.32V16.24a1.55,1.55,0,0,1-1.66,1.66H75.7V16.24h1.69a.53.53,0,0,0,.52-.52V.32ZM74.92,3.84l-1.69-.23A31,31,0,0,1,70,13.81l1.51.79A32.76,32.76,0,0,0,74.92,3.84Zm12.51,9.92A31,31,0,0,1,84.27,3.54l-1.69.21a32.75,32.75,0,0,0,3.34,10.78Z"/><path class="cls-1" d="M119.47,5.18a26.9,26.9,0,0,1-4.26,3.27l-.52-1.63a25.19,25.19,0,0,0,3.53-2.73Zm-4.88-3.52A25.09,25.09,0,0,1,118,3.54l1.09-1.27A26.91,26.91,0,0,0,115.65.33Zm3,6.63a.53.53,0,0,0-.53.53v5h1.66V10.47a.53.53,0,0,1,.52-.52H127a.53.53,0,0,1,.52.52v3.38h1.66v-5a.53.53,0,0,0-.53-.53Zm13-1.53a13.9,13.9,0,0,1-4.22-2.13l-.93,1.15a15.34,15.34,0,0,0,4.69,2.42Zm-6.23,5.84h0c-.26.46-.53.91-.81,1.34a18.26,18.26,0,0,0,6.15,3.71l.72-1.48A16.18,16.18,0,0,1,124.33,12.6Zm-1.44.84a5.32,5.32,0,0,0,1-2.54h-1.55a3.74,3.74,0,0,1-.7,1.65c-1.5,2.17-4.51,3.21-6.17,3.63l.38,1.51C117.7,17.21,121.11,16,122.89,13.43ZM126.2,3h2.08c.44,0,.27.27.27.27s-.46.7-.54.8l1.26.59a4.86,4.86,0,0,0,1.16-2.71h0a.53.53,0,0,0-.52-.51h-6.69c-.3,0-.25-.25-.25-.25a10.1,10.1,0,0,0,.16-1.12L121.48,0a4.58,4.58,0,0,1-1.71,3.32L121,4.41a8.74,8.74,0,0,0,1-1.25s.08-.17.39-.17h1.75a.19.19,0,0,1,.21.24.9.9,0,0,1-.2.45,14.52,14.52,0,0,1-3.82,3.16l.82,1.23a15.48,15.48,0,0,0,4.16-3.42A2.53,2.53,0,0,0,126,3.2S126,3,126.2,3Z"/><path class="cls-1" d="M76.72,35.52,72.2,28.64v6.88H70.72V25.74h1.36l4.52,6.87V25.74h1.48v9.78Z"/><path class="cls-1" d="M80.91,35.52V25.74h6.25v1.33H82.39v2.86h4.07v1.32H82.39v2.94h4.77v1.33Z"/><path class="cls-1" d="M95.21,34.56a3.7,3.7,0,0,1-5.15,0c-1-1-.95-2-.95-3.93s0-3,.95-3.93a3.7,3.7,0,0,1,5.15,0c1,1,.93,2,.93,3.93S96.17,33.6,95.21,34.56Zm-1.13-7a2.06,2.06,0,0,0-2.91,0c-.48.52-.58,1.07-.58,3s.1,2.51.58,3a2.06,2.06,0,0,0,2.91,0c.48-.52.58-1.07.58-3S94.56,28.12,94.08,27.59Z"/><path class="cls-1" d="M105.35,35.6a3.54,3.54,0,0,1-2.57-1c-1-1-.95-2-.95-3.93s0-3,.95-3.93a3.54,3.54,0,0,1,2.57-1,3.6,3.6,0,0,1,2.73,1.15l-1,1a2.22,2.22,0,0,0-1.74-.82,2,2,0,0,0-1.44.59c-.48.52-.58,1.09-.58,3s.1,2.53.58,3a2,2,0,0,0,1.44.59,2.22,2.22,0,0,0,1.74-.82l1,1A3.6,3.6,0,0,1,105.35,35.6Z"/><path class="cls-1" d="M115.8,35.52l-.67-2h-3.86l-.67,2H109l3.58-9.78h1.19l3.58,9.78ZM113.23,28l-1.52,4.34h3Z"/><path class="cls-1" d="M122.75,31.67h-2.23v3.85H119V25.74h3.71a3,3,0,1,1,0,5.93Zm-.08-4.6h-2.14v3.25h2.14a1.63,1.63,0,1,0,0-3.25Z"/><path class="cls-1" d="M128,35.52V25.74h1.48v9.78Z"/><path class="cls-1" d="M135.58,27.07v8.45h-1.48V27.07H131.4V25.74h6.87v1.33Z"/><path class="cls-1" d="M145,35.52l-.67-2h-3.86l-.67,2h-1.58l3.58-9.78H143l3.58,9.78ZM142.46,28l-1.52,4.34h3Z"/><path class="cls-1" d="M148.27,35.52V25.74h1.48v8.45h4.71v1.33Z"/><path class="cls-1" d="M8.37,54.7h-4a2.93,2.93,0,0,1-1.11,1.5,9.76,9.76,0,0,1-3,1.18L0,56.93A11.21,11.21,0,0,0,2.56,56a2.57,2.57,0,0,0,1.3-1.34H.32v-.46H4a2.92,2.92,0,0,0,.1-.76l.51,0a4.69,4.69,0,0,1-.08.74H8.37Zm.27-1.53H0v-.5h4v-.92H.86v-.47H4.07v-.9H.46v-.48H8.19v.48H4.58v.9H7.8v.47H4.58v.92H8.64ZM3.36,49.43l-.46.3a4.35,4.35,0,0,0-1-.79l.49-.31A4.14,4.14,0,0,1,3.36,49.43ZM8.56,57l-.32.42A18.78,18.78,0,0,0,4.66,55.7l.28-.43A19,19,0,0,1,8.56,57ZM6.62,48.95a4.91,4.91,0,0,1-1.07.79l-.47-.3a4.79,4.79,0,0,0,1.09-.77Z"/><path class="cls-1" d="M14.8,50.89a5.26,5.26,0,0,1-.6.13A9.73,9.73,0,0,1,13.37,55a17.22,17.22,0,0,1,1.37,1.23l-.41.4a11.71,11.71,0,0,0-1.22-1.16,9.44,9.44,0,0,1-1.82,1.92L10.9,57a7.42,7.42,0,0,0,1.78-1.85,12.11,12.11,0,0,0-1.46-1q.37-1.51.57-2.73l-.85.05V51a7.13,7.13,0,0,0,.92-.08q.15-.91.27-2.13h.53q-.05.76-.25,2.07a12,12,0,0,0,1.29-.21q0-.47,0-.92h.52c0,.35,0,.62,0,.81a3.6,3.6,0,0,0,.58-.14Zm-1.13.25a11.7,11.7,0,0,1-1.33.19q-.27,1.54-.53,2.54a12.25,12.25,0,0,1,1.13.78A8.86,8.86,0,0,0,13.68,51.14Zm5.87,2.13H17.4V56.5a.74.74,0,0,1-.28.7,2.37,2.37,0,0,1-1.07.16l-.68,0-.18-.54a9.21,9.21,0,0,0,1,.05,1.56,1.56,0,0,0,.53-.06.2.2,0,0,0,.12-.2V53.27H14.48v-.52h2.36V51.59a13.87,13.87,0,0,0,1.73-2.13h-3.9v-.51h4.52v.56a15.16,15.16,0,0,1-1.79,2.3v1h2.15Z"/><path class="cls-1" d="M26.36,53.84a3,3,0,0,1-1.14,2.72,7.71,7.71,0,0,1-3.23.86l-.24-.52a9.85,9.85,0,0,0,2.44-.43,2.36,2.36,0,0,0,1.25-.86,3.56,3.56,0,0,0,.39-1.77Zm-2-2.94a13.85,13.85,0,0,1-2.2,1.61l-.35-.42A13.93,13.93,0,0,0,24,50.55Zm0-1.07-.29.4a12.36,12.36,0,0,0-1.8-1.07l.29-.44A10.91,10.91,0,0,1,24.37,49.84ZM29,55.78h-.51V53.41h-4.9v2.38h-.5V52.92H29Zm1.35-3.48-.27.45a5.91,5.91,0,0,1-2.9-1.48,4.49,4.49,0,0,1-2.91,1.44l-.23-.47q2.48-.36,3.12-2l.52.09a2.9,2.9,0,0,1-.22.46A5.66,5.66,0,0,0,30.37,52.3ZM30.14,50a1.77,1.77,0,0,1-.23.39q-.23.34-.62.83L28.83,51a7.08,7.08,0,0,0,.7-1H26a9.35,9.35,0,0,1-1,1l-.4-.34a7.17,7.17,0,0,0,1.59-1.95l.48.24a4.38,4.38,0,0,1-.32.51h3.78Zm.28,7.07-.3.43a18.17,18.17,0,0,0-3.66-1.29l.26-.44A16.94,16.94,0,0,1,30.42,57.07Z"/><path class="cls-1" d="M41.37,55.5l-.36.41a10.42,10.42,0,0,1-3.69-5v4.23h2.15v.51H37.32v1.77h-.55V55.65H34.56v-.51h2.21V50.91a11.38,11.38,0,0,1-1.5,2.78A11.16,11.16,0,0,1,33,55.89l-.34-.43a9.33,9.33,0,0,0,3.57-4.54H32.86V50.4h3.91v-1.7h.55v1.7h3.8v.51H37.89A9.35,9.35,0,0,0,41.37,55.5Z"/><path class="cls-1" d="M48.47,54.19a1,1,0,0,1-.4-.09,1.11,1.11,0,0,1-.33-.23,1,1,0,0,1-.22-.34,1.08,1.08,0,0,1,0-.82,1,1,0,0,1,.22-.33,1.16,1.16,0,0,1,.33-.22,1,1,0,0,1,.4-.09,1,1,0,0,1,.41.09,1.1,1.1,0,0,1,.33.22,1,1,0,0,1,.22.33,1.06,1.06,0,0,1-.55,1.38A1,1,0,0,1,48.47,54.19Z"/><path class="cls-1" d="M64.92,54.7h-4a2.93,2.93,0,0,1-1.11,1.5,9.76,9.76,0,0,1-3,1.18l-.3-.45A11.21,11.21,0,0,0,59.1,56a2.57,2.57,0,0,0,1.3-1.34H56.86v-.46h3.66a2.93,2.93,0,0,0,.1-.76l.51,0a4.69,4.69,0,0,1-.08.74h3.86Zm.27-1.53H56.57v-.5h4v-.92H57.41v-.47h3.21v-.9H57v-.48h7.73v.48H61.13v.9h3.22v.47H61.13v.92h4.06Zm-5.28-3.74-.46.3a4.34,4.34,0,0,0-1-.79l.49-.31A4.14,4.14,0,0,1,59.91,49.43ZM65.11,57l-.32.42a18.78,18.78,0,0,0-3.58-1.73l.28-.43A19,19,0,0,1,65.11,57Zm-1.94-8.06a4.91,4.91,0,0,1-1.07.79l-.47-.3a4.79,4.79,0,0,0,1.09-.77Z"/><path class="cls-1" d="M71.35,50.89a5.25,5.25,0,0,1-.6.13A9.73,9.73,0,0,1,69.91,55a17.22,17.22,0,0,1,1.37,1.23l-.41.4a11.71,11.71,0,0,0-1.22-1.16,9.44,9.44,0,0,1-1.82,1.92L67.45,57a7.42,7.42,0,0,0,1.78-1.85,12.13,12.13,0,0,0-1.46-1q.37-1.51.57-2.73l-.85.05V51a7.13,7.13,0,0,0,.92-.08q.15-.91.27-2.13h.53q-.05.76-.25,2.07a12,12,0,0,0,1.29-.21q0-.47,0-.92h.52c0,.35,0,.62,0,.81a3.59,3.59,0,0,0,.58-.14Zm-1.13.25a11.7,11.7,0,0,1-1.33.19q-.27,1.54-.53,2.54a12.25,12.25,0,0,1,1.13.78A8.87,8.87,0,0,0,70.22,51.14Zm5.87,2.13H73.94V56.5a.74.74,0,0,1-.28.7,2.37,2.37,0,0,1-1.07.16l-.68,0-.18-.54a9.21,9.21,0,0,0,1,.05,1.57,1.57,0,0,0,.53-.06.2.2,0,0,0,.12-.2V53.27H71v-.52h2.36V51.59a13.88,13.88,0,0,0,1.73-2.13h-3.9v-.51h4.52v.56a15.16,15.16,0,0,1-1.79,2.3v1h2.15Z"/><path class="cls-1" d="M87,51.84l-.31.46a14.07,14.07,0,0,1-1.59-.84v.47h-2.2v1.41H86.4v.5H82.87v2.77h3.74v.5H78.72v-.5h3.63V53.84H78.91v-.5h3.44V51.93H80.25v-.51a12.36,12.36,0,0,1-1.61.83l-.34-.46a9.49,9.49,0,0,0,4.28-3.12l.55.19L83,49A9.9,9.9,0,0,0,87,51.84ZM81.25,56l-.48.2a8.13,8.13,0,0,0-1-1.64l.47-.22A8.31,8.31,0,0,1,81.25,56ZM85,51.4a9.93,9.93,0,0,1-2.32-2,10.12,10.12,0,0,1-2.35,2Zm.65,3.18a8.4,8.4,0,0,1-1.11,1.67L84,56a7.29,7.29,0,0,0,1.13-1.63Z"/><path class="cls-1" d="M93.92,49.43H89.21V49h4.71Zm-.26,7.19a.72.72,0,0,1-.14.47.6.6,0,0,1-.35.21,3.93,3.93,0,0,1-.73,0l-.19-.51.45,0c.31,0,.47-.11.47-.32V53.27h-.84l.39.21a11,11,0,0,1-.44,1.41h.54v.48h-1v1.76h-.48V55.37h-1v-.48h.52a11.18,11.18,0,0,0-.48-1.37l.34-.25H90v4.09h-.48V52.78h4.13Zm-.4-4.47H89.9V50.08h3.37Zm-.5-.48V50.58H90.39v1.09Zm-.5,1.6h-1.4q.4,1.06.56,1.62h.33A8.37,8.37,0,0,0,92.27,53.27Zm5.62,3.87-.45.23q-.09-.36-.28-.94-1.47.47-3.08.83l-.16-.45q1.06-.25,1.73-.46V54.2H94.2V50.27h1.44V48.72h.48v1.56h1.41V54.2H96.13v2A8,8,0,0,0,97,56q-.24-.65-.39-1l.44-.19A13.56,13.56,0,0,1,97.89,57.14Zm-2.24-3.41v-3h-1v3Zm1.4,0v-3h-.92v3Z"/><path class="cls-1" d="M105,54.19a1,1,0,0,1-.4-.09,1.12,1.12,0,0,1-.33-.23,1,1,0,0,1-.22-.34,1.08,1.08,0,0,1,0-.82,1,1,0,0,1,.22-.33,1.17,1.17,0,0,1,.33-.22,1,1,0,0,1,.4-.09,1,1,0,0,1,.41.09,1.1,1.1,0,0,1,.33.22,1,1,0,0,1,.22.33,1.06,1.06,0,0,1-.55,1.38A1,1,0,0,1,105,54.19Z"/><path class="cls-1" d="M121.47,54.7h-4a2.93,2.93,0,0,1-1.11,1.5,9.76,9.76,0,0,1-3,1.18l-.3-.45a11.22,11.22,0,0,0,2.56-.89A2.58,2.58,0,0,0,117,54.7h-3.54v-.46h3.66a2.92,2.92,0,0,0,.1-.76l.51,0a4.69,4.69,0,0,1-.08.74h3.86Zm.27-1.53h-8.61v-.5h4v-.92H114v-.47h3.21v-.9h-3.6v-.48h7.73v.48h-3.61v.9h3.22v.47h-3.22v.92h4.06Zm-5.28-3.74-.46.3a4.34,4.34,0,0,0-1-.79l.49-.31A4.14,4.14,0,0,1,116.46,49.43Zm5.2,7.58-.32.42a18.79,18.79,0,0,0-3.58-1.73l.28-.43A19,19,0,0,1,121.65,57Zm-1.94-8.06a4.91,4.91,0,0,1-1.07.79l-.47-.3a4.79,4.79,0,0,0,1.09-.77Z"/><path class="cls-1" d="M127.89,50.89a5.25,5.25,0,0,1-.6.13,9.73,9.73,0,0,1-.83,3.95,17.22,17.22,0,0,1,1.37,1.23l-.41.4a11.71,11.71,0,0,0-1.22-1.16,9.44,9.44,0,0,1-1.82,1.92L124,57a7.42,7.42,0,0,0,1.78-1.85,12.11,12.11,0,0,0-1.46-1q.37-1.51.57-2.73l-.85.05V51a7.13,7.13,0,0,0,.92-.08q.15-.91.27-2.13h.53q-.05.76-.25,2.07a12,12,0,0,0,1.29-.21q0-.47,0-.92h.52c0,.35,0,.62,0,.81a3.59,3.59,0,0,0,.58-.14Zm-1.13.25a11.7,11.7,0,0,1-1.33.19q-.27,1.54-.53,2.54a12.24,12.24,0,0,1,1.13.78A8.87,8.87,0,0,0,126.77,51.14Zm5.87,2.13h-2.15V56.5a.74.74,0,0,1-.28.7,2.37,2.37,0,0,1-1.07.16l-.68,0-.18-.54a9.21,9.21,0,0,0,1,.05,1.57,1.57,0,0,0,.53-.06.2.2,0,0,0,.12-.2V53.27h-2.36v-.52h2.36V51.59a13.88,13.88,0,0,0,1.73-2.13h-3.9v-.51h4.52v.56a15.16,15.16,0,0,1-1.79,2.3v1h2.15Z"/><path class="cls-1" d="M138.59,54l-.32.42A6.51,6.51,0,0,0,136.9,53v4.29h-.52V53.38q-.72.7-1.11,1l-.42-.41a8.64,8.64,0,0,0,2.75-3.18h-2.68v-.52h3.3v.47a10.57,10.57,0,0,1-1.12,1.77A8.94,8.94,0,0,1,138.59,54ZM137,49.85l-.51.18a5.65,5.65,0,0,0-.74-1.22l.51-.2A8.2,8.2,0,0,1,137,49.85Zm6.45,7.27h-5.23V56.6h2.41v-5h-2.14v-.52h2.14V48.72h.53v2.37h2.07v.52H141.2v5h2.29Z"/><path class="cls-1" d="M154.46,51.93l-.31.43a10.82,10.82,0,0,1-4-2.87,11.67,11.67,0,0,1-4,2.91l-.34-.44a9.8,9.8,0,0,0,4.36-3.31l.45.27a.41.41,0,0,1-.11.17A10.26,10.26,0,0,0,154.46,51.93Zm-.28,2.17h-4.66a14.6,14.6,0,0,1-2.29,2.61q2.72-.18,5.22-.5A12.81,12.81,0,0,0,151.25,55l.44-.3a14,14,0,0,1,2.19,2.47l-.42.3a8.29,8.29,0,0,0-.6-.8q-3,.39-6.27.6l-.17-.48a12,12,0,0,0,2.44-2.67H146v-.52h8.21Zm-1.78-1.85h-4.62v-.51h4.62Z"/><line class="cls-2" y1="42.88" x2="154.84" y2="42.88"/></g></g></svg>