<?xml version="1.0" standalone="no"?><!DOCTYPE svg PUBLIC "-//W3C//DTD SVG 1.1//EN" "http://www.w3.org/Graphics/SVG/1.1/DTD/svg11.dtd"><svg t="1493262857691" class="icon" style="" viewBox="0 0 1024 1024" version="1.1" xmlns="http://www.w3.org/2000/svg" p-id="14703" xmlns:xlink="http://www.w3.org/1999/xlink" width="30" height="30"><defs><style type="text/css"></style></defs><path d="M714.432046 684.174258" p-id="14704" fill="#ffffff"></path><path d="M509.3864 927.099938c-229.837814 0-416.824878-186.987064-416.824878-416.821265 0-229.837814 186.987064-416.82849 416.824878-416.82849s416.824878 186.990676 416.824878 416.82849C926.211278 740.112875 739.224215 927.099938 509.3864 927.099938zM509.3864 107.899938c-221.868774 0-402.375122 180.506348-402.375122 402.378735 0 221.868774 180.506348 402.37151 402.375122 402.37151s402.375122-180.502736 402.375122-402.37151C911.761523 288.406286 731.255174 107.899938 509.3864 107.899938z" p-id="14705" fill="#ffffff"></path><path d="M605.845745 422.503632c6.263969 0 12.430402 0.487679 18.636572 1.159593-16.714755-77.801097-99.840587-135.57122-194.786319-135.57122-106.129843 0-193.045124 72.292128-193.045124 164.167287 0 53.001704 28.921186 96.538818 77.252006 130.351246l-19.286811 58.059118 67.498421-33.808816c24.149154 4.728683 43.497377 9.641599 67.606794 9.641599 6.061673 0 12.061934-0.263708 17.986333-0.733325-3.746099-12.900019-5.964137-26.417766-5.964137-40.488215C441.779606 490.941287 514.176494 422.503632 605.845745 422.503632zM502.092886 370.195516c14.579804 0 24.163604 9.5838 24.163604 24.102193 0 14.438918-9.5838 24.12748-24.163604 24.12748-14.420856 0-28.939248-9.688561-28.939248-24.12748C473.153638 379.735967 487.635906 370.195516 502.092886 370.195516zM366.98767 418.399901c-14.50033 0-29.083746-9.666887-29.083746-24.123867 0-14.522004 14.601478-24.105805 29.083746-24.105805 14.50033 0 24.105805 9.562126 24.105805 24.105805C391.093475 408.718565 381.488 418.399901 366.98767 418.399901z" p-id="14706" fill="#ffffff"></path><path d="M782.09664 572.983388c0-77.165308-77.252006-140.061482-164.001115-140.061482-91.878772 0-164.167287 62.914236-164.167287 140.061482 0 77.374829 72.331865 140.061482 164.167287 140.061482 19.229012 0 38.624197-4.811769 57.918233-9.645212l52.93668 29.040397-14.522004-48.269409C753.179066 655.07245 782.09664 616.502439 782.09664 572.983388zM564.844563 548.798109c-9.5838 0-19.290424-9.544064-19.290424-19.286811 0-9.609088 9.706623-19.297649 19.290424-19.297649 14.66289 0 24.163604 9.688561 24.163604 19.297649C589.011779 539.254045 579.507452 548.798109 564.844563 548.798109zM671.032205 548.798109c-9.500714 0-19.189276-9.544064-19.189276-19.286811 0-9.609088 9.641599-19.297649 19.189276-19.297649 14.522004 0 24.163604 9.688561 24.163604 19.297649C695.195809 539.254045 685.550597 548.798109 671.032205 548.798109z" p-id="14707" fill="#ffffff"></path></svg>