<?xml version="1.0" standalone="no"?><!DOCTYPE svg PUBLIC "-//W3C//DTD SVG 1.1//EN" "http://www.w3.org/Graphics/SVG/1.1/DTD/svg11.dtd"><svg t="1493262949109" class="icon" style="" viewBox="0 0 1024 1024" version="1.1" xmlns="http://www.w3.org/2000/svg" p-id="17529" xmlns:xlink="http://www.w3.org/1999/xlink" width="58" height="58"><defs><style type="text/css"></style></defs><path d="M960.32119 506.932588c0-250.519684-200.635553-453.55796-448.113971-453.55796-247.477394 0-448.114994 203.038276-448.114994 453.55796 0 250.483868 200.6376 453.55796 448.114994 453.55796C759.685637 960.489524 960.32119 757.416456 960.32119 506.932588zM99.941712 506.932588c0-230.092445 184.952362-417.273569 412.265508-417.273569 227.329519 0 412.264485 187.1801 412.264485 417.273569 0 230.091422-184.934966 417.272545-412.264485 417.272545C284.894074 924.205133 99.941712 737.02401 99.941712 506.932588z" p-id="17530" fill="#eea807"></path><path d="M704.862008 479.399511 730.206232 453.745225 512.20722 233.114269 294.223556 453.745225 319.569828 479.399511 494.281965 302.565037 494.281965 742.782154 530.130428 742.782154 530.130428 302.565037Z" p-id="17531" fill="#eea807"></path></svg>